<?xml version="1.0" standalone="no"?>
<!DOCTYPE svg PUBLIC "-//W3C//DTD SVG 20010904//EN"
 "http://www.w3.org/TR/2001/REC-SVG-20010904/DTD/svg10.dtd">
<svg version="1.0" xmlns="http://www.w3.org/2000/svg"
 width="1024.000000pt" height="1024.000000pt" viewBox="0 0 1024.000000 1024.000000"
 preserveAspectRatio="xMidYMid meet">
<metadata>
Created by potrace 1.14, written by Peter Selinger 2001-2017
</metadata>
<g transform="translate(0.000000,1024.000000) scale(0.100000,-0.100000)"
fill="#000000" stroke="none">
<path d="M5747 8390 c-31 -9 -66 -47 -67 -71 0 -14 -23 -18 -151 -25 -83 -5
-153 -6 -156 -1 -9 14 -39 7 -101 -25 l-62 -32 -68 17 c-37 9 -87 20 -112 24
-39 6 -42 8 -20 14 l25 7 -27 1 c-20 1 -28 6 -28 19 0 27 -42 62 -74 62 -35 0
-82 -25 -96 -49 -13 -25 -13 -74 0 -87 6 -6 4 -10 -8 -11 -9 0 -69 -15 -132
-32 -63 -17 -125 -31 -138 -31 -23 0 -22 -1 9 -38 32 -38 33 -38 68 -26 20 7
54 15 76 18 31 5 25 1 -27 -17 -36 -12 -66 -26 -66 -32 0 -5 5 -8 11 -6 155
57 143 55 329 54 206 -1 192 6 253 -120 34 -70 77 -175 72 -178 -1 -1 -23 -12
-48 -24 -36 -17 -48 -28 -53 -51 -3 -18 -12 -30 -21 -30 -19 0 -19 -14 0 -30
9 -7 15 -29 15 -52 0 -22 7 -52 16 -68 16 -27 16 -30 -20 -101 -48 -94 -89
-142 -117 -134 -17 6 -19 3 -15 -19 3 -14 7 -29 10 -34 2 -4 -6 -26 -19 -47
-13 -22 -42 -71 -64 -110 -22 -38 -50 -84 -61 -101 l-20 -31 24 -17 c24 -15
25 -15 31 7 5 17 129 250 141 266 2 2 9 -1 16 -7 10 -8 13 -4 14 16 1 15 33
81 72 147 40 66 72 129 72 140 0 19 5 20 73 17 l74 -3 44 -91 c24 -50 68 -132
97 -182 29 -50 59 -107 65 -128 7 -22 18 -38 27 -38 9 0 25 -7 37 -15 29 -20
43 -13 100 53 64 74 72 88 44 73 -11 -7 -21 -10 -21 -8 0 2 -22 -18 -50 -45
-27 -26 -55 -48 -60 -48 -6 0 -21 24 -35 53 -13 28 -49 97 -80 152 -97 175
-128 239 -131 273 -3 36 -32 83 -89 145 -19 21 -35 40 -35 41 0 2 10 6 22 10
21 5 21 6 5 18 -18 14 -104 254 -94 264 3 4 18 -3 34 -14 39 -27 147 -81 216
-107 l59 -22 -64 -58 c-34 -32 -54 -55 -43 -50 11 4 39 14 63 22 25 9 53 29
68 48 l25 33 67 -19 c76 -22 82 -22 82 -11 0 5 -29 21 -65 37 -53 22 -63 30
-54 41 15 18 39 17 63 -1 11 -8 25 -15 30 -15 6 0 -3 9 -20 19 -18 11 -35 24
-38 29 -7 12 105 154 136 170 20 11 35 8 108 -21 47 -19 108 -45 136 -58 49
-23 52 -26 47 -56 -8 -48 10 -63 74 -63 44 0 58 -4 79 -25 14 -14 46 -31 72
-38 49 -12 256 -109 265 -124 3 -4 -1 -14 -9 -21 -8 -7 -14 -10 -14 -6 0 4 -8
0 -17 -8 -41 -35 -63 -40 -91 -22 -14 9 -45 18 -68 18 -43 1 -38 16 5 16 20 0
21 2 11 15 -14 17 -105 21 -115 5 -10 -17 -38 -12 -177 34 -73 25 -151 47
-173 51 -40 6 -40 6 -15 -10 14 -9 17 -14 8 -11 -10 3 -20 1 -22 -3 -8 -12 62
-36 214 -72 74 -17 139 -34 143 -36 5 -3 -1 -15 -12 -27 -28 -30 -43 -74 -31
-89 6 -7 25 -34 43 -62 17 -27 46 -57 62 -65 l31 -15 -33 -95 c-40 -117 -40
-122 -7 -118 23 3 30 13 55 82 16 44 29 93 29 109 l0 29 57 -7 c63 -8 70 -13
299 -217 123 -108 184 -172 184 -192 0 -7 -10 -21 -21 -32 -12 -10 -42 -46
-67 -79 -25 -33 -36 -51 -23 -40 13 11 30 20 39 20 9 0 17 5 17 10 0 15 46 77
53 70 3 -3 11 4 17 15 11 20 12 21 36 2 72 -55 103 -75 90 -59 -7 9 -10 17 -5
17 5 1 -8 10 -29 21 -33 17 -36 22 -26 40 6 11 8 27 5 36 -4 9 12 39 39 74 25
33 45 64 45 69 0 6 9 19 20 30 11 11 15 20 10 20 -6 0 -45 -33 -87 -74 l-77
-73 -67 56 c-36 31 -126 107 -199 169 -73 62 -141 119 -151 125 -19 12 -25 38
-12 51 4 3 7 21 7 39 1 33 3 34 46 23 22 -6 21 -5 -5 10 -37 20 -65 44 -65 56
0 4 24 8 54 8 30 0 58 5 62 11 4 8 0 9 -15 4 -16 -5 -21 -2 -21 13 0 16 7 19
39 19 25 0 42 -5 45 -14 5 -12 71 -46 251 -128 28 -13 94 -39 147 -60 54 -20
108 -45 120 -56 22 -18 22 -20 5 -33 -16 -12 -33 -8 -143 38 -94 39 -129 58
-143 79 -22 35 -33 23 -29 -32 1 -33 7 -42 27 -50 46 -17 124 -39 184 -52 31
-7 57 -16 57 -21 0 -5 -10 -6 -22 -3 -170 37 -203 46 -527 151 -25 8 -46 12
-48 10 -10 -9 604 -199 617 -191 5 3 11 1 15 -5 4 -6 18 -2 37 11 16 12 50 24
74 27 51 5 54 22 6 34 -29 8 -72 49 -72 70 0 4 12 6 28 2 21 -4 24 -3 12 5 -8
6 -22 11 -31 11 -9 0 -29 18 -45 41 -15 22 -48 58 -72 80 -41 36 -43 39 -21
39 13 1 40 9 59 18 l35 17 150 -83 c83 -46 157 -90 165 -98 13 -14 13 -17 -5
-30 -24 -18 -80 -34 -120 -34 -39 0 -56 -12 -46 -29 7 -11 21 -11 73 -2 93 16
121 14 136 -9 14 -24 15 -24 -77 -10 -39 5 -71 5 -80 0 -13 -8 -12 -9 5 -10
30 0 157 -65 192 -98 20 -19 38 -56 62 -127 30 -91 42 -117 89 -195 10 -17 -2
-9 -34 21 -28 25 -73 58 -100 74 -28 16 -87 53 -133 82 -76 50 -82 55 -76 80
l7 27 -46 -28 c-26 -15 -47 -23 -47 -17 0 11 -80 54 -88 46 -3 -3 7 -18 21
-33 26 -27 27 -32 27 -140 0 -86 3 -112 13 -112 9 0 19 -33 32 -97 27 -146 63
-291 85 -340 l19 -43 -37 -19 c-53 -27 -76 -55 -68 -83 19 -61 23 -88 14 -88
-5 0 -20 -23 -33 -51 l-23 -51 -7 58 c-3 33 -8 76 -11 97 -5 31 -3 37 13 37
15 0 13 4 -8 16 -27 18 -24 1 -63 299 -9 66 -21 128 -26 138 -8 12 -7 17 3 17
40 0 62 74 31 104 -21 22 -43 20 -71 -6 -13 -12 -23 -16 -23 -10 0 6 5 14 10
17 6 3 10 12 10 18 -1 7 -9 2 -19 -9 -16 -20 -19 -20 -29 -5 -10 14 -11 13 -5
-4 4 -11 9 -22 12 -25 10 -8 29 -90 20 -84 -5 3 -9 1 -9 -5 0 -5 7 -14 16 -19
13 -7 19 -33 25 -108 5 -55 17 -142 28 -194 11 -52 18 -96 16 -98 -2 -2 -18 1
-37 7 -245 80 -378 110 -378 83 0 -13 100 -36 147 -34 24 0 45 -4 48 -9 4 -5
17 -9 30 -9 13 0 28 -7 33 -15 4 -9 31 -22 58 -29 96 -25 107 -34 120 -101 7
-33 15 -91 19 -130 4 -38 9 -73 11 -77 12 -20 49 15 77 73 35 70 33 69 122 54
36 -6 44 -4 69 22 54 53 59 67 47 123 -10 46 -9 54 13 88 13 20 44 57 70 81
25 24 43 48 40 53 -7 10 76 99 86 93 9 -6 62 50 55 57 -10 10 112 17 141 9 65
-19 167 -62 193 -81 16 -10 30 -17 33 -15 3 3 28 -22 57 -55 29 -33 57 -60 62
-60 5 0 9 14 9 32 0 49 7 29 14 -37 4 -44 14 -71 36 -103 28 -40 29 -45 15
-65 -8 -12 -15 -34 -15 -50 0 -22 6 -31 29 -40 23 -8 33 -23 49 -71 36 -104
70 -256 81 -367 6 -58 13 -113 17 -122 3 -10 1 -17 -5 -17 -6 0 -11 4 -11 9 0
12 -131 122 -272 229 -103 78 -106 81 -87 98 27 24 25 76 -4 110 -25 28 -57
34 -114 20 -29 -7 -34 -5 -42 17 -5 13 -12 47 -16 75 -3 29 -23 110 -42 180
-20 70 -46 165 -58 212 -22 81 -39 108 -51 77 -7 -19 12 -94 88 -342 63 -209
73 -245 66 -245 -7 0 -118 45 -245 99 -146 62 -160 66 -173 41 -8 -16 3 -23
103 -67 61 -27 153 -65 202 -83 50 -18 95 -37 101 -42 6 -4 14 -27 17 -50 3
-22 12 -47 20 -56 14 -13 11 -22 -26 -81 -87 -142 -177 -307 -177 -325 0 -30
12 -13 79 117 67 129 91 170 98 163 3 -2 -21 -53 -52 -113 -31 -59 -48 -98
-38 -85 10 12 33 50 52 85 18 34 60 106 93 160 l60 97 27 -26 c14 -15 53 -47
86 -72 33 -25 111 -86 172 -135 96 -76 111 -92 103 -107 -6 -10 -10 -32 -10
-47 0 -29 -1 -29 -137 -62 -163 -40 -294 -79 -308 -93 -7 -6 -1 -8 15 -5 14 2
20 2 13 0 -20 -7 -24 -33 -5 -33 40 0 345 70 388 89 26 12 48 20 48 19 1 -2 7
-13 14 -26 7 -12 8 -21 3 -20 -5 2 -26 -23 -47 -54 -22 -32 -88 -112 -147
-178 -60 -66 -105 -125 -102 -130 4 -6 1 -18 -7 -28 -9 -11 -3 -9 17 5 37 26
215 208 274 281 l44 53 33 -32 c29 -28 37 -31 57 -22 24 11 24 10 47 -90 55
-248 62 -277 71 -277 5 0 9 12 9 27 0 53 -31 270 -49 338 l-18 70 -47 -3 c-35
-1 -47 1 -44 10 3 7 14 14 26 16 12 2 22 8 22 13 0 5 8 9 18 9 20 0 34 25 52
89 8 32 8 48 -4 76 -14 33 -14 35 3 26 10 -6 30 -26 45 -46 22 -29 34 -35 63
-35 l36 0 -7 -57 c-3 -32 -11 -104 -16 -160 -5 -56 -12 -115 -16 -130 -6 -28
-6 -28 19 6 28 36 76 216 78 287 0 30 2 34 9 19 6 -17 8 -14 12 15 2 26 7 11
17 -55 7 -49 21 -137 32 -194 25 -135 25 -138 -14 -196 -46 -68 -109 -188
-136 -257 -31 -78 -51 -77 -51 2 0 45 -4 60 -14 60 -17 0 -22 -13 -31 -73 -12
-77 -40 -93 -171 -100 -60 -3 -137 -11 -171 -17 -60 -12 -63 -14 -63 -41 0
-28 1 -28 43 -24 297 34 282 34 297 -9 9 -28 7 -44 -14 -102 -13 -38 -34 -102
-46 -141 -19 -61 -26 -73 -44 -73 -11 0 -35 -9 -52 -19 l-31 -19 -59 44 c-83
61 -356 318 -343 323 6 2 16 -2 22 -8 12 -12 134 -15 161 -5 9 3 16 15 16 25
0 17 -8 19 -87 18 -72 -2 -81 -3 -48 -9 34 -7 31 -8 -22 -6 -35 2 -66 6 -70 9
-3 4 -14 7 -23 7 -20 0 -70 51 -70 71 0 8 5 20 12 27 9 9 9 12 -4 12 -16 0
-19 9 -87 324 -21 98 -44 182 -51 186 -11 6 -10 12 3 25 13 12 15 21 7 36 -16
29 -47 23 -65 -11 -14 -27 -14 -31 3 -48 12 -12 24 -54 36 -123 10 -57 32
-157 47 -222 38 -156 38 -160 -11 -182 -26 -12 -40 -25 -40 -37 0 -25 -24 -71
-46 -89 -15 -12 -16 -12 -9 0 5 9 4 12 -3 7 -6 -3 -13 -2 -17 4 -8 12 -261 14
-269 1 -6 -10 97 -21 204 -21 l75 -1 -70 -64 c-38 -36 -110 -93 -159 -126 -81
-57 -89 -60 -99 -43 -6 10 -28 37 -50 61 l-40 43 17 38 c23 50 35 134 23 154
-7 11 -4 51 11 129 11 63 24 138 28 167 4 28 10 52 13 52 4 0 35 -20 69 -45
34 -25 62 -43 62 -41 0 2 -30 28 -66 56 -66 52 -66 53 -61 93 4 25 2 36 -3 27
-5 -8 -12 -12 -15 -9 -12 13 9 41 46 59 43 23 59 46 59 88 0 42 -37 72 -86 71
l-39 -1 39 -8 c55 -10 78 -47 60 -94 -10 -25 -53 -19 -82 12 l-27 29 -2 -96
c-1 -53 -14 -176 -28 -274 -14 -98 -24 -184 -21 -190 2 -7 5 -1 6 13 1 14 6
34 11 45 6 14 7 10 2 -15 -3 -19 -6 -66 -6 -105 1 -63 0 -65 -6 -23 -4 26 -10
50 -13 54 -4 3 -26 7 -50 9 -24 1 -28 0 -10 -2 23 -3 32 -9 32 -23 0 -10 5
-22 10 -25 27 -17 -4 -125 -36 -125 -14 0 -14 -3 -4 -15 10 -12 9 -33 -5 -104
-9 -49 -18 -122 -19 -163 -1 -69 0 -73 22 -76 30 -4 59 21 67 59 4 16 11 31
16 34 5 4 9 11 9 17 0 7 -13 -1 -30 -17 l-30 -29 1 65 c0 35 6 86 12 112 l12
48 39 -40 c39 -40 39 -41 26 -80 -15 -47 -8 -117 14 -139 8 -9 40 -17 71 -20
45 -4 66 0 101 18 35 17 58 21 107 18 57 -3 62 -1 65 19 7 47 75 30 88 -23 18
-70 -29 -113 -102 -92 -50 13 -53 4 -4 -12 33 -11 45 -11 77 1 23 9 39 23 41
34 2 11 14 34 27 51 13 16 25 41 27 55 2 15 9 23 18 20 69 -17 99 -23 198 -36
62 -8 155 -15 206 -15 l93 0 13 -45 c7 -24 19 -50 26 -56 28 -23 44 -17 -290
-122 -59 -19 -117 -32 -128 -29 -29 7 -13 16 87 50 233 79 288 102 237 102
-12 0 -62 -15 -110 -34 -48 -19 -131 -44 -184 -57 -56 -13 -98 -28 -98 -35 0
-6 19 -30 41 -53 23 -23 40 -43 38 -45 -2 -2 -20 -9 -39 -15 -33 -10 -32 -10
15 -5 45 5 53 2 75 -21 14 -15 76 -70 138 -122 l112 -94 -45 -44 c-25 -24 -45
-48 -45 -53 0 -5 -60 7 -132 28 -73 21 -194 52 -268 70 -74 18 -160 39 -191
47 l-55 15 2 44 c1 24 -2 46 -7 49 -17 11 -9 23 22 30 17 4 28 9 26 12 -3 2
-21 0 -40 -5 -33 -9 -36 -8 -67 32 l-32 41 5 -44 c7 -59 -8 -70 -97 -71 -94 0
-136 -16 -136 -51 0 -24 4 -27 46 -33 68 -9 110 -7 138 5 21 10 29 8 53 -10
20 -17 35 -21 59 -16 22 4 62 -6 140 -34 60 -22 152 -49 204 -61 52 -12 119
-31 148 -41 29 -10 64 -19 77 -19 14 0 25 -4 25 -10 0 -13 -22 -13 -57 1 -15
6 -80 24 -143 40 -95 25 -192 53 -300 86 -13 4 -13 4 0 -6 17 -12 152 -55 316
-100 60 -16 122 -35 137 -40 35 -14 25 -37 -16 -38 -100 0 -466 -15 -486 -19
-20 -4 -22 -7 -10 -15 12 -8 12 -10 -1 -19 -22 -14 -57 -12 -63 4 -3 8 -1 17
6 19 26 9 -6 19 -81 24 -58 4 -87 2 -108 -9 l-29 -14 3 48 c4 44 1 51 -32 84
-20 20 -35 39 -32 41 2 3 40 14 83 25 43 10 88 26 101 34 26 17 31 39 5 26
-10 -5 -49 -17 -88 -27 -38 -10 -83 -27 -98 -38 -16 -10 -30 -17 -32 -15 -2 2
2 26 10 53 24 78 20 109 -19 143 -19 16 -40 32 -47 34 -10 3 -9 26 4 113 10
59 15 110 13 112 -9 9 -36 -11 -36 -27 0 -33 -49 -215 -59 -218 -29 -10 -61
-47 -67 -77 -5 -27 0 -44 20 -80 15 -25 32 -45 38 -45 6 0 3 -10 -8 -21 -19
-22 -19 -22 3 -10 52 27 103 3 103 -48 0 -36 -44 -141 -59 -141 -6 0 -33 9
-60 20 -34 13 -58 17 -78 11 -15 -4 -41 -4 -58 0 -16 4 -22 7 -12 8 10 0 17 7
15 14 -3 8 -37 14 -99 18 -93 7 -124 0 -102 -22 6 -6 9 -17 7 -24 -6 -14 45
-23 140 -27 56 -2 63 7 -78 -93 -47 -33 -85 -63 -86 -67 0 -7 61 12 96 30 69
35 144 65 192 77 32 7 67 17 80 21 12 3 22 2 22 -4 0 -5 -17 -13 -37 -16 -64
-11 -161 -46 -185 -66 -22 -19 -21 -19 35 0 31 11 81 23 110 25 28 3 63 8 77
11 48 11 14 -5 -100 -46 -120 -43 -160 -55 -222 -65 -28 -4 -36 -9 -31 -21 3
-9 13 -14 24 -11 11 3 17 1 13 -4 -3 -5 2 -9 10 -9 9 0 16 4 16 9 0 5 12 11
28 14 15 2 56 12 92 20 36 9 110 21 165 26 l100 10 -105 -5 c-58 -2 -121 -7
-140 -10 -25 -3 -31 -2 -20 5 33 21 177 41 341 47 170 7 266 21 169 25 -25 1
-36 3 -25 6 11 2 29 6 41 8 11 3 33 14 48 26 21 17 25 24 14 30 -8 5 9 8 42 8
30 -1 47 -3 38 -6 -10 -2 -18 -8 -18 -13 0 -21 14 -40 29 -40 11 -1 9 -5 -8
-14 -17 -10 -20 -15 -10 -19 8 -3 112 -2 233 1 l218 5 -20 -39 c-11 -21 -29
-61 -41 -87 -24 -54 -25 -54 -49 -5 -31 61 -113 78 -157 33 -14 -13 -25 -30
-25 -37 0 -11 -40 -13 -197 -12 -121 1 -190 -2 -178 -8 15 -6 13 -7 -10 -3
-75 14 -178 16 -298 6 -125 -12 -130 -11 -151 9 -26 23 -44 26 -52 6 -3 -8
-15 -11 -31 -8 -18 3 -24 1 -19 -7 8 -12 6 -12 -34 -16 -14 -1 -46 -7 -72 -14
-47 -11 -82 -6 -72 10 3 5 16 9 30 9 14 0 32 7 40 15 14 13 12 15 -14 15 -29
0 -30 1 -21 37 5 26 4 40 -4 45 -20 13 -51 9 -76 -8 -18 -13 -22 -24 -19 -49
4 -32 2 -33 -37 -41 -22 -4 -73 -7 -112 -8 -40 -1 -74 -5 -75 -10 -2 -5 17
-14 42 -20 49 -12 65 -43 20 -39 -14 1 -52 4 -85 7 -62 6 -54 1 40 -23 l40
-11 -43 5 c-33 4 -50 1 -72 -15 -23 -16 -45 -20 -122 -21 -55 0 -85 -4 -73 -8
11 -4 50 -6 87 -3 57 4 68 2 68 -11 0 -12 -18 -16 -87 -21 -49 -4 -135 -11
-193 -17 -175 -16 -229 -19 -195 -10 30 9 30 9 -10 11 -22 2 5 6 59 10 62 4
101 11 104 18 2 7 22 13 45 13 93 3 102 17 12 18 -91 1 -398 -36 -403 -49 -1
-4 -22 0 -45 8 -31 11 -51 28 -73 61 -17 25 -87 130 -155 232 -68 102 -132
201 -142 220 -16 29 -20 31 -28 16 -6 -9 -9 -41 -7 -70 3 -44 6 -52 22 -52 14
0 49 -43 120 -146 56 -80 120 -171 144 -201 23 -30 42 -62 42 -71 0 -20 4 -20
48 -8 25 7 32 7 32 -4 0 -9 -28 -17 -87 -25 -105 -15 -260 -2 -274 22 -5 9
-18 14 -32 11 -27 -5 -103 57 -138 114 -12 19 -24 32 -27 29 -2 -3 13 -29 35
-58 22 -29 42 -64 46 -78 5 -23 4 -22 -23 9 -16 19 -35 47 -43 63 -14 28 -14
28 -32 8 -10 -11 -30 -20 -44 -20 -23 0 -20 -5 37 -57 52 -46 63 -61 59 -81
-7 -36 11 -89 36 -107 25 -17 79 -20 108 -5 20 11 59 79 59 105 0 10 10 15 28
15 15 1 89 2 165 3 82 2 141 -1 145 -7 3 -5 1 -11 -5 -13 -6 -2 -19 -10 -29
-18 -16 -13 -17 -16 -4 -25 8 -5 25 -10 37 -10 28 0 46 -31 35 -61 -8 -20 -16
-23 -65 -24 -31 0 -59 -3 -62 -6 -8 -8 235 -517 304 -636 30 -52 42 -64 69
-69 32 -6 62 -3 92 10 11 5 28 -22 70 -110 30 -64 63 -122 74 -130 34 -24 84
-18 116 15 36 35 46 74 30 109 l-12 27 25 -23 c37 -35 86 -11 101 50 6 26 -13
58 -35 58 -19 0 -115 221 -148 339 -11 38 -24 78 -30 89 -13 24 -14 24 169 -8
171 -31 207 -34 193 -20 -16 17 -149 47 -268 61 -110 12 -131 17 -122 25 3 3
56 1 119 -5 62 -6 170 -14 241 -17 123 -6 158 -15 99 -27 -17 -4 -33 -16 -40
-32 -16 -35 -15 -40 4 -20 22 21 46 16 61 -14 9 -20 9 -32 -3 -60 -8 -20 -22
-42 -31 -48 -14 -11 -12 -13 21 -13 43 0 83 34 92 78 l6 28 86 -3 c306 -12
332 -14 332 -33 0 -9 9 -29 21 -44 16 -21 29 -26 63 -26 52 0 66 13 66 61 0
34 3 37 35 43 37 7 55 28 48 56 -4 15 7 18 79 25 46 4 129 6 186 6 56 -1 102
0 102 2 0 9 -36 44 -50 49 -10 3 -4 10 20 23 41 21 50 32 50 62 0 12 9 27 21
34 17 9 25 7 43 -10 24 -23 70 -31 48 -9 -17 17 -15 48 2 48 32 0 46 -13 46
-41 0 -25 4 -29 29 -29 43 0 56 23 57 104 1 69 4 76 104 276 56 113 119 228
139 255 62 82 66 94 39 105 l-23 9 24 0 c17 1 21 4 13 14 -14 18 -21 79 -11
105 7 18 14 22 32 17 l22 -6 -23 20 -24 21 24 9 c12 5 38 23 57 40 19 17 38
31 42 31 4 0 13 -13 20 -28 l12 -28 70 18 c77 20 98 34 129 89 19 34 22 36 48
26 35 -13 57 -4 78 33 9 16 25 30 35 30 16 0 16 3 4 33 -13 30 -11 36 32 117
43 79 48 85 75 82 52 -6 76 6 96 51 26 56 25 87 -5 131 l-25 37 46 112 c25 62
50 127 56 145 9 25 17 32 37 32 15 0 37 7 49 16 34 23 31 100 -5 147 -16 19
-32 42 -38 50 -5 9 -17 17 -25 19 -8 2 -18 12 -22 23 -3 11 -6 -7 -7 -41 -1
-50 -4 -63 -19 -66 -10 -3 -35 -38 -56 -79 -47 -90 -97 -171 -103 -166 -2 3
14 40 35 83 28 56 41 98 46 142 5 53 113 411 120 400 2 -2 -1 -52 -5 -113 -8
-108 2 -188 21 -168 5 4 12 82 16 173 5 116 11 169 21 178 16 16 17 74 1 90
-8 8 -17 8 -32 0 -12 -6 -18 -8 -15 -4 4 4 1 26 -6 50 -7 23 -25 105 -39 182
-15 76 -31 149 -36 162 -8 17 -6 22 6 22 21 0 44 60 44 115 0 35 -6 51 -29 77
-26 29 -35 33 -74 31 l-45 -1 -26 116 c-15 64 -32 140 -39 168 -13 49 -12 52
10 78 34 40 31 66 -10 66 -21 0 -36 7 -45 20 -12 20 -52 28 -52 10 0 -22 -18
-8 -24 18 -3 15 -40 63 -84 109 -43 45 -103 115 -134 155 -54 70 -56 75 -51
123 6 61 -18 99 -76 116 -34 10 -42 9 -65 -7 -14 -11 -26 -25 -26 -31 0 -23
-18 -14 -39 20 -21 34 -62 77 -71 74 -3 -1 -19 8 -35 21 -17 13 -23 20 -15 16
8 -4 23 -14 33 -22 9 -8 17 -11 17 -6 0 4 23 -14 50 -41 28 -27 50 -44 50 -38
0 11 -55 84 -73 95 -8 5 -8 14 1 33 7 14 12 37 12 50 0 43 -70 62 -90 25 -10
-19 -12 -19 -34 -5 -18 12 -25 13 -28 4 -2 -7 -19 8 -36 32 -18 24 -78 91
-134 148 -56 57 -115 120 -131 140 -25 31 -28 32 -22 11 8 -27 42 -75 84 -119
14 -16 50 -57 80 -92 30 -35 -3 -5 -72 66 -83 86 -126 138 -126 153 -1 12 4
22 10 22 5 0 7 5 3 11 -21 34 45 -22 120 -103 47 -50 86 -89 86 -84 0 19 -66
99 -124 151 -65 57 -65 57 -59 101 11 83 -38 144 -115 144 -31 0 -47 -7 -70
-30 -25 -25 -31 -27 -35 -12 -2 9 -26 25 -53 36 -27 10 -92 39 -144 63 l-95
44 0 44 c-1 57 -25 85 -76 85 -50 0 -84 -16 -98 -46 -13 -29 -22 -30 -91 -3
-30 11 -82 30 -115 41 -33 12 -54 23 -48 25 7 3 53 -9 104 -26 51 -17 100 -31
110 -31 9 0 20 -6 23 -12 3 -7 4 1 1 17 -4 22 -3 26 5 15 7 -10 10 -11 10 -2
0 13 -44 34 -64 30 -6 -1 -43 7 -83 17 -58 15 -70 22 -61 33 6 7 14 9 17 5 7
-10 93 -44 98 -39 2 2 -14 11 -36 19 -34 14 -42 23 -51 59 -15 54 -34 76 -76
84 -41 8 -66 0 -98 -33 -24 -23 -26 -24 -26 -6 0 21 -36 30 -318 74 -135 21
-193 21 -85 -1 32 -6 69 -15 83 -20 14 -5 63 -11 110 -15 47 -4 103 -10 125
-15 l40 -8 -50 0 c-84 -1 -319 15 -340 23 -16 6 -14 1 9 -23 32 -34 22 -42
-28 -22 -22 8 -26 16 -26 50 0 35 -3 40 -26 46 l-27 7 29 13 29 12 -38 1 c-25
1 -43 -5 -53 -18 -16 -18 -18 -17 -70 14 -30 18 -83 45 -119 60 -58 25 -83 45
-55 45 16 0 192 -90 214 -109 16 -13 18 -13 14 -1 -6 20 -121 87 -186 107 -51
16 -52 17 -46 49 7 36 -16 88 -45 104 -22 11 -26 11 -64 0z m34 -20 c11 -6 19
-21 19 -36 0 -22 -4 -25 -27 -22 -23 2 -29 8 -31 36 -3 34 6 39 39 22z m-857
-15 c21 -21 10 -43 -26 -50 -44 -10 -56 8 -25 39 31 30 31 31 51 11z m121
-118 c16 -6 40 -16 53 -23 20 -10 27 -9 40 4 14 14 32 16 97 13 74 -5 76 -5
35 -12 -25 -3 63 -7 195 -7 165 0 240 -3 243 -11 2 -6 -3 -14 -12 -17 -9 -3
-39 -37 -67 -75 -28 -38 -52 -69 -54 -69 -2 0 -19 9 -37 19 -36 21 -193 75
-248 85 -40 7 -37 5 92 -48 47 -20 91 -36 97 -36 6 0 11 -4 11 -8 0 -5 16 -16
35 -25 35 -16 43 -31 26 -41 -16 -11 -299 116 -305 136 -3 7 -7 25 -10 40 -9
38 -41 54 -70 35 -19 -13 -33 -13 -110 -1 -49 8 -93 17 -98 20 -15 10 24 45
41 38 9 -3 29 -11 46 -17z m418 6 c-7 -2 -19 -2 -25 0 -7 3 -2 5 12 5 14 0 19
-2 13 -5z m44 1 c-3 -3 -12 -4 -19 -1 -8 3 -5 6 6 6 11 1 17 -2 13 -5z m71 -1
c-10 -2 -28 -2 -40 0 -13 2 -5 4 17 4 22 1 32 -1 23 -4z m-798 -36 c-32 -17
-152 -47 -182 -46 -13 0 17 11 65 23 48 13 91 26 94 30 3 3 16 6 27 6 19 0 19
-1 -4 -13z m-213 -63 c-3 -3 -12 -4 -19 -1 -8 3 -5 6 6 6 11 1 17 -2 13 -5z
m193 -4 c-8 -5 -19 -10 -25 -10 -5 0 -3 5 5 10 8 5 20 10 25 10 6 0 3 -5 -5
-10z m1783 -122 c63 1 77 -1 77 -14 0 -13 -11 -14 -79 -8 -43 3 -107 12 -142
20 l-64 13 65 -6 c36 -3 100 -5 143 -5z m242 -13 c0 -15 -8 -21 -29 -23 -36
-4 -53 18 -28 36 24 18 57 11 57 -13z m-276 -27 c52 -12 85 -27 78 -35 -8 -7
-145 36 -153 49 -5 8 -1 9 11 5 10 -4 38 -12 64 -19z m-159 -19 c0 -15 -5 -20
-22 -17 -12 2 -24 9 -26 17 -3 10 1 12 17 8 11 -3 19 -1 15 4 -3 5 0 9 5 9 6
0 11 -9 11 -21z m170 -24 c39 -3 82 -11 98 -19 15 -8 47 -19 71 -26 25 -6 90
-43 147 -81 56 -38 117 -76 136 -83 18 -8 53 -37 76 -65 24 -28 63 -65 88 -82
25 -17 44 -33 41 -35 -2 -2 -29 7 -59 20 -30 14 -93 36 -139 50 -46 15 -129
50 -184 79 l-100 53 3 51 c2 29 -1 54 -7 58 -18 10 -92 8 -103 -3 -7 -7 -14
-7 -22 -1 -6 6 -38 25 -70 43 -33 18 -62 38 -64 46 -3 7 0 10 7 6 6 -4 43 -9
81 -11z m658 -91 c13 -9 22 -26 22 -40 0 -22 -4 -25 -32 -22 -23 2 -37 11 -48
31 -13 24 -13 29 0 37 21 13 32 12 58 -6z m-181 -84 c5 0 22 -14 39 -31 l29
-31 -30 13 c-16 7 -41 22 -55 34 -14 11 -45 31 -70 44 -25 13 -49 28 -55 33
-5 6 22 -6 61 -26 39 -20 76 -36 81 -36z m-1752 29 c-17 -4 -41 -18 -53 -29
-12 -11 -22 -16 -22 -11 0 18 52 51 79 50 25 -1 25 -1 -4 -10z m1390 -47 c-3
-3 -11 0 -18 7 -9 10 -8 11 6 5 10 -3 15 -9 12 -12z m1057 -157 c23 -52 -30
-72 -92 -34 l-34 21 23 19 c35 28 89 25 103 -6z m-697 -95 c2 -4 -7 -5 -20 -2
-14 2 -27 8 -30 12 -2 4 7 5 20 2 14 -2 27 -8 30 -12z m805 -255 c51 -58 99
-105 106 -105 8 0 14 -4 14 -9 0 -6 25 -30 56 -55 31 -26 50 -46 42 -46 -10 0
-9 -3 2 -10 30 -19 3 -9 -53 19 l-57 29 31 -39 c17 -21 35 -39 39 -39 5 0 8
-9 7 -20 -1 -17 -12 -19 -12 -1 0 8 -56 70 -150 166 -124 125 -146 156 -140
187 4 16 10 28 14 28 4 0 49 -47 101 -105z m-386 -53 c28 -21 101 -73 161
-116 142 -99 193 -138 199 -153 3 -7 -20 5 -52 26 -31 21 -120 78 -197 126
-150 94 -185 121 -185 142 0 22 21 15 74 -25z m396 -108 c17 -24 35 -42 39
-39 5 2 15 -3 22 -13 12 -15 12 -16 -1 -7 -9 6 -4 0 10 -13 14 -13 41 -34 60
-47 43 -28 189 -175 174 -175 -5 0 -14 4 -19 9 -16 14 -106 41 -137 41 -30 0
-35 15 -19 55 11 28 4 42 -37 70 -33 23 -36 23 -61 7 -25 -16 -26 -16 -11 3
14 18 14 19 -2 7 -9 -8 -18 -23 -20 -35 -2 -14 -14 10 -31 62 -15 46 -26 85
-24 88 3 2 14 -8 26 -23 29 -37 29 -3 -1 39 -12 17 -17 27 -10 23 6 -4 26 -27
42 -52z m-255 -74 c75 -44 154 -89 175 -100 24 -12 40 -28 40 -38 0 -17 -112
-158 -216 -271 -36 -39 -58 -54 -82 -57 -28 -3 -31 -1 -24 12 6 11 3 42 -9 88
-29 112 -77 344 -87 418 l-8 67 37 -20 c21 -10 99 -55 174 -99z m416 93 c13
-16 12 -17 -3 -4 -10 7 -18 15 -18 17 0 8 8 3 21 -13z m128 -223 c45 -49 81
-84 81 -78 0 9 3 9 12 0 26 -26 27 -10 2 26 l-28 37 35 -32 c18 -18 38 -32 44
-32 5 0 11 -5 13 -13 2 -9 0 -8 -8 2 -10 12 -11 11 -7 -7 3 -16 0 -23 -9 -23
-8 0 -14 4 -14 10 0 5 -7 7 -15 4 -9 -4 -28 7 -47 28 -54 57 -150 168 -144
168 3 0 41 -40 85 -90z m48 7 c6 2 14 -1 18 -6 4 -7 0 -8 -11 -4 -19 7 -14 -7
14 -40 8 -9 13 -19 11 -22 -3 -2 -24 22 -48 53 -24 31 -33 47 -20 36 13 -12
29 -20 36 -17z m128 -177 c3 -6 -1 -7 -9 -4 -18 7 -21 14 -7 14 6 0 13 -4 16
-10z m41 -27 c-7 -7 -26 7 -26 19 0 6 6 6 15 -2 9 -7 13 -15 11 -17z m148 -83
c12 -14 73 -79 135 -145 133 -141 198 -225 183 -234 -8 -5 -3 -48 15 -138 14
-73 30 -130 34 -128 4 3 9 -10 11 -29 l4 -34 -41 46 c-22 25 -51 61 -65 81
-13 20 -51 68 -83 106 -32 39 -81 107 -108 152 -28 46 -56 89 -64 97 -8 7 -13
27 -12 42 2 28 0 29 -37 27 -33 -2 -36 -1 -26 12 7 8 21 15 32 15 11 0 18 3
16 8 -1 4 -15 32 -30 62 -15 30 -30 69 -33 85 -5 29 -5 29 12 -6 16 -31 114
-129 130 -129 3 0 -14 21 -39 48 -24 26 -59 70 -77 97 -34 52 -34 52 43 -35z
m-174 55 c10 -12 10 -15 -3 -15 -8 0 -17 7 -21 15 -3 8 -2 15 3 15 5 0 14 -7
21 -15z m-392 -55 c0 -9 -3 -7 -8 5 -5 11 -8 29 -8 40 0 16 2 15 8 -5 4 -14 8
-32 8 -40z m-228 47 c0 -2 -10 -12 -22 -23 l-23 -19 19 23 c18 21 26 27 26 19z
m253 -122 l6 -30 -14 30 c-16 34 -21 72 -6 45 5 -8 11 -28 14 -45z m-403 -27
c0 -6 -6 -5 -15 2 -8 7 -15 14 -15 16 0 2 7 1 15 -2 8 -4 15 -11 15 -16z m417
-30 c-3 -8 -6 -5 -6 6 -1 11 2 17 5 13 3 -3 4 -12 1 -19z m-708 -98 c0 -9 -4
-8 -9 5 -5 11 -9 27 -9 35 0 9 4 8 9 -5 5 -11 9 -27 9 -35z m8 -42 c-3 -8 -6
-5 -6 6 -1 11 2 17 5 13 3 -3 4 -12 1 -19z m1263 -151 c12 -54 20 -110 18
-125 -2 -15 -13 20 -25 83 -12 61 -25 121 -29 135 -5 18 -4 22 4 15 6 -5 20
-54 32 -108z m-376 1 c14 -23 3 -31 -33 -23 -22 5 -31 12 -31 26 0 16 6 20 26
17 15 -2 32 -11 38 -20z m476 -29 c0 -4 -11 -2 -25 4 -14 7 -25 21 -25 31 0
18 2 18 25 -4 14 -13 25 -27 25 -31z m-16 -35 c14 -8 36 -39 51 -69 14 -30 57
-88 96 -128 38 -41 69 -81 69 -89 0 -30 -36 -38 -114 -27 l-75 11 -6 57 c-4
31 -13 87 -21 124 -8 38 -14 81 -14 97 0 16 -6 31 -12 33 -7 3 -9 6 -5 6 4 1
18 -6 31 -15z m413 -290 c3 -9 1 -20 -5 -26 -13 -13 -62 15 -62 36 0 31 54 22
67 -10z m-240 -60 c-3 -3 -12 -4 -19 -1 -8 3 -5 6 6 6 11 1 17 -2 13 -5z m128
-289 c-15 -63 -30 -113 -32 -111 -3 2 8 56 23 120 15 63 30 114 32 111 3 -2
-8 -56 -23 -120z m112 -57 c-3 -7 -5 -2 -5 12 0 14 2 19 5 13 2 -7 2 -19 0
-25z m32 -98 c0 -9 -4 -8 -9 5 -5 11 -9 27 -9 35 0 9 4 8 9 -5 5 -11 9 -27 9
-35z m21 -53 c0 -5 -4 -5 -10 -2 -5 3 -10 14 -10 23 0 15 2 15 10 2 5 -8 10
-19 10 -23z m-30 -97 c-6 -11 -13 -20 -16 -20 -2 0 0 9 6 20 6 11 13 20 16 20
2 0 0 -9 -6 -20z m35 -62 c-10 -29 -31 -89 -46 -133 -16 -44 -36 -106 -45
-138 -9 -32 -18 -56 -20 -54 -8 7 32 151 71 262 40 114 39 108 23 99 -7 -4 -8
-3 -4 5 4 6 12 9 17 6 5 -4 9 -1 9 6 0 7 3 10 6 6 4 -3 -2 -30 -11 -59z m-101
-64 c-30 -63 -47 -114 -49 -148 -2 -28 -2 -40 1 -26 11 53 36 120 46 120 5 0
8 -3 6 -8 -13 -30 -38 -105 -49 -146 -12 -46 -13 -48 -21 -24 -5 14 -21 31
-36 38 -20 10 -23 14 -11 17 9 2 31 36 49 76 33 75 98 197 105 197 2 0 -17
-43 -41 -96z m-1553 15 c-6 -35 -17 -84 -26 -109 l-15 -45 6 60 c3 33 10 68
15 77 5 9 9 30 9 46 0 27 9 47 17 38 2 -2 -1 -32 -6 -67z m1589 -24 c-30 -49
-34 -44 -8 11 13 25 24 40 26 35 2 -6 -6 -27 -18 -46z m-975 -276 c25 -55 240
-261 349 -334 50 -33 92 -66 94 -74 6 -18 -129 -10 -371 21 -164 21 -168 22
-174 47 -11 49 -41 71 -98 71 -57 0 -91 -22 -100 -65 -17 -84 -11 -77 -53 -60
-20 9 -41 23 -47 32 -5 9 -24 35 -42 58 l-31 43 21 19 c12 11 54 40 93 65 39
26 83 60 99 76 16 17 32 29 37 26 4 -3 8 0 8 5 0 18 -10 13 -60 -31 -42 -38
-130 -96 -130 -85 0 2 25 21 55 42 31 21 77 61 103 90 46 50 48 51 44 23 -6
-43 21 -68 74 -68 48 0 65 15 39 34 -11 8 -18 27 -19 51 -1 31 4 41 22 51 38
19 68 6 87 -37z m1073 4 c-5 -24 -27 -28 -25 -4 1 12 7 21 15 21 7 0 12 -8 10
-17z m-855 -20 c-13 -2 -33 -2 -45 0 -13 2 -3 4 22 4 25 0 35 -2 23 -4z m891
-45 c7 -11 7 -26 0 -45 -7 -22 -17 -29 -42 -31 -31 -3 -32 -2 -32 35 0 22 6
45 12 51 17 17 48 11 62 -10z m-224 -122 c-22 -48 -37 -92 -34 -98 4 -6 2 -13
-3 -17 -28 -19 -126 -166 -151 -228 -30 -73 -87 -157 -102 -148 -4 3 -13 -2
-20 -10 -7 -8 -19 -15 -26 -15 -8 0 -14 -4 -14 -9 0 -5 -3 -18 -6 -28 -3 -10
10 0 30 22 19 22 35 35 36 29 0 -6 -6 -17 -14 -24 -8 -6 -43 -53 -77 -103 -94
-139 -103 -139 -18 -1 20 34 34 66 29 70 -15 16 29 113 58 128 15 8 37 25 49
38 27 29 66 115 58 128 -7 12 15 92 29 105 6 6 12 17 13 25 2 15 45 127 65
168 12 22 45 32 34 10 -3 -7 -27 -66 -53 -130 -26 -65 -55 -126 -64 -137 -9
-10 -13 -24 -9 -31 10 -16 34 19 108 160 106 203 117 221 120 201 2 -10 -15
-58 -38 -105z m-180 50 c0 -24 -55 -203 -68 -224 -7 -11 -11 -11 -19 0 -16 20
56 271 74 256 7 -6 13 -20 13 -32z m296 -83 c-30 -60 -96 -226 -96 -242 0 -6
-11 -11 -25 -11 -21 0 -24 3 -16 18 5 9 19 25 31 35 11 10 18 22 15 27 -3 6
-2 10 3 10 5 0 9 6 9 13 2 18 59 152 79 182 27 41 28 21 0 -32z m-1610 -21
c35 -54 -7 -27 -51 32 l-30 40 33 -24 c18 -13 39 -35 48 -48z m164 23 c-7 -8
-17 -15 -23 -15 -6 0 -2 7 9 15 25 19 30 19 14 0z m-45 -25 c-3 -5 -12 -10
-18 -10 -7 0 -6 4 3 10 19 12 23 12 15 0z m1405 -39 c0 -4 -11 -19 -24 -32
-29 -29 -89 -136 -84 -150 2 -6 19 17 38 50 19 33 36 58 38 56 5 -5 -61 -119
-79 -135 -9 -8 -57 -69 -107 -135 -83 -112 -142 -178 -142 -161 0 3 23 30 50
58 28 28 49 56 48 62 -3 14 63 127 106 180 18 23 45 64 61 91 23 41 83 121 93
124 1 1 2 -3 2 -8z m-88 -243 c-7 -7 -12 -8 -12 -2 0 14 12 26 19 19 2 -3 -1
-11 -7 -17z m116 -26 c4 -36 -26 -72 -59 -72 -33 0 -59 19 -59 43 0 30 10 43
44 61 40 20 70 7 74 -32z m-513 -68 c-22 -9 -99 -33 -171 -54 -72 -21 -142
-44 -157 -51 -14 -6 -34 -8 -44 -4 -12 5 27 19 122 46 77 21 167 47 200 58 71
23 107 26 50 5z m85 -4 c0 -6 -7 -27 -16 -48 -37 -88 -94 -264 -88 -274 4 -7
3 -8 -4 -4 -6 3 -16 -3 -22 -15 -12 -21 -12 -21 -43 8 -18 16 -61 51 -97 78
-66 49 -120 100 -120 113 0 4 65 30 145 57 80 27 164 59 188 71 50 26 57 27
57 14z m281 -44 c14 8 11 -14 -7 -47 -8 -17 -13 -37 -10 -45 3 -9 1 -12 -4 -9
-6 3 -10 0 -10 -7 0 -7 -9 -23 -18 -36 -16 -21 -20 -22 -31 -9 -10 12 -10 20
1 39 7 13 17 26 21 29 5 3 7 8 5 10 -1 3 6 24 17 48 10 24 21 38 23 32 2 -6 8
-9 13 -5z m19 -56 c-16 -31 -23 -18 -8 15 7 15 14 23 16 17 2 -6 -2 -21 -8
-32z m-179 -117 c-6 -14 -9 -35 -5 -47 11 -36 -9 -8 -22 31 -11 32 -11 40 3
56 15 16 18 16 26 1 6 -10 5 -25 -2 -41z m-31 -65 c0 -19 -134 -159 -171 -178
-13 -7 5 17 41 54 35 36 59 66 53 66 -7 0 -18 -9 -26 -20 -7 -10 -27 -29 -43
-42 -24 -18 -27 -19 -14 -2 48 59 89 101 95 96 4 -4 5 -2 4 3 -2 6 3 21 10 34
8 14 -26 -15 -74 -65 -97 -98 -89 -84 25 45 l74 84 13 -29 c7 -16 12 -37 13
-46z m-1137 2 c-5 -17 -13 -20 -62 -19 -66 1 -114 13 -91 22 19 8 63 14 117
16 37 1 41 -1 36 -19z m886 -84 c9 -11 9 -16 -1 -22 -7 -4 -10 -4 -6 1 4 4 3
14 -3 22 -6 7 -9 13 -6 13 2 0 10 -6 16 -14z m-1522 -238 c-20 -7 -35 -7 -50
0 -18 9 -14 11 28 11 46 -1 48 -1 22 -11z m1289 -6 c-3 -5 -33 -10 -68 -11
-34 -1 -60 0 -58 3 3 3 31 6 63 7 31 1 57 7 57 12 0 6 3 8 6 4 3 -3 3 -10 0
-15z m-1040 -37 c16 -8 24 -15 18 -15 -7 0 -25 7 -40 15 -16 8 -24 15 -18 15
7 0 25 -7 40 -15z m-29 -11 c-3 -3 -12 -4 -19 -1 -8 3 -5 6 6 6 11 1 17 -2 13
-5z m1026 -1 c-13 -2 -33 -2 -45 0 -13 2 -3 4 22 4 25 0 35 -2 23 -4z m97 -22
c0 -13 -29 -35 -37 -28 -7 8 15 37 28 37 5 0 9 -4 9 -9z m-262 -38 c-10 -2
-28 -2 -40 0 -13 2 -5 4 17 4 22 1 32 -1 23 -4z m125 0 c-13 -2 -35 -2 -50 0
-16 2 -5 4 22 4 28 0 40 -2 28 -4z m-270 -10 c-7 -2 -19 -2 -25 0 -7 3 -2 5
12 5 14 0 19 -2 13 -5z m-530 -20 c-18 -2 -48 -2 -65 0 -18 2 -4 4 32 4 36 0
50 -2 33 -4z m917 -57 c0 -7 -9 -21 -20 -31 -19 -17 -20 -17 -20 -1 0 25 19
58 31 51 5 -4 9 -12 9 -19z m-291 -90 c29 -31 54 -122 40 -148 -6 -10 -31 -29
-57 -41 -46 -22 -48 -25 -97 -140 -49 -114 -51 -118 -88 -128 -21 -6 -48 -8
-60 -6 -14 3 -9 5 13 6 49 2 30 12 -95 56 -127 44 -249 98 -259 114 -4 6 -12
11 -17 11 -5 0 -2 -11 6 -24 13 -19 14 -29 6 -45 -16 -30 -14 -46 3 -32 11 10
42 1 146 -38 72 -28 145 -61 161 -75 l29 -25 -53 -6 c-28 -3 -106 -10 -172
-14 l-120 -9 -25 28 c-19 20 -31 26 -48 21 -13 -3 -23 -10 -22 -16 1 -5 -3
-11 -9 -13 -6 -2 -11 1 -11 7 0 6 -9 11 -20 11 -16 0 -20 -7 -20 -34 0 -30 -4
-34 -32 -40 -35 -7 -29 -21 12 -29 14 -2 3 -5 -25 -5 -36 -1 -46 1 -35 8 12 8
11 10 -7 10 -12 0 -24 4 -27 9 -10 15 -124 23 -300 22 -155 -1 -174 0 -240 23
-40 14 -144 44 -232 67 -87 23 -170 49 -184 58 -33 22 -81 43 -87 37 -9 -8 17
-45 36 -51 20 -6 29 -21 41 -72 7 -29 6 -31 -16 -29 -13 2 -27 6 -32 11 -4 4
-1 5 6 1 6 -4 12 -3 12 3 0 5 -16 19 -36 32 l-36 22 7 66 c4 36 8 67 9 69 2 1
52 9 112 17 60 9 135 20 166 26 48 10 63 9 92 -5 19 -9 48 -16 65 -16 34 0 50
23 71 100 16 62 27 68 112 63 50 -4 109 2 186 16 62 12 123 19 135 15 35 -10
87 -53 87 -72 0 -15 -17 -17 -167 -17 -163 0 -169 1 -187 23 -25 31 -65 26
-86 -10 -15 -27 -14 -28 23 -59 42 -35 46 -56 17 -87 -25 -27 -11 -28 38 -3
25 12 44 16 58 11 11 -5 83 -10 159 -11 l138 -3 9 24 c15 40 39 60 73 60 51 0
69 -28 62 -100 -3 -33 -2 -60 1 -60 3 0 16 10 29 22 28 26 31 92 7 143 -18 39
-71 70 -107 63 -15 -3 -24 -2 -22 3 3 4 -1 10 -7 12 -7 3 -1 6 15 6 32 1 32 1
9 43 l-19 33 45 -4 c31 -2 42 0 38 8 -4 6 -24 11 -44 11 -24 0 -32 3 -22 8 8
4 101 5 205 2 187 -6 188 -6 55 -8 -163 -3 -184 -7 -169 -33 9 -17 22 -19 147
-19 231 1 504 18 513 32 5 7 11 31 15 53 11 69 42 85 83 41z m-741 -33 c-10
-2 -26 -2 -35 0 -10 3 -2 5 17 5 19 0 27 -2 18 -5z m302 3 c0 -2 -7 -9 -15
-16 -12 -10 -15 -10 -15 4 0 9 7 16 15 16 8 0 15 -2 15 -4z m235 -7 c-20 -5
-9 -6 33 -2 42 3 62 1 62 -6 0 -7 -27 -11 -75 -11 -62 0 -73 2 -69 15 4 10 19
15 43 14 l36 -1 -30 -9z m-1168 -5 c-3 -3 -12 -4 -19 -1 -8 3 -5 6 6 6 11 1
17 -2 13 -5z m333 -2 c0 -9 -151 -35 -158 -27 -10 9 4 14 68 23 89 13 90 13
90 4z m66 -5 c4 -4 -5 -7 -19 -7 -15 0 -27 4 -27 8 0 10 36 9 46 -1z m125 1
c-30 -7 -47 -6 -54 1 -8 8 4 11 44 10 l54 -1 -44 -10z m357 5 c-10 -2 -26 -2
-35 0 -10 3 -2 5 17 5 19 0 27 -2 18 -5z m-800 -10 c-10 -2 -28 -2 -40 0 -13
2 -5 4 17 4 22 1 32 -1 23 -4z m-68 -13 c0 -5 -4 -10 -10 -10 -5 0 -10 5 -10
10 0 6 5 10 10 10 6 0 10 -4 10 -10z m103 -7 c-7 -2 -21 -2 -30 0 -10 3 -4 5
12 5 17 0 24 -2 18 -5z m1376 -20 c-40 -47 -42 -49 -34 -33 10 19 47 60 53 60
3 0 -5 -12 -19 -27z m-1434 7 c3 -5 2 -10 -4 -10 -5 0 -13 5 -16 10 -3 6 -2
10 4 10 5 0 13 -4 16 -10z m262 -6 c-3 -3 -12 -4 -19 -1 -8 3 -5 6 6 6 11 1
17 -2 13 -5z m60 0 c-3 -3 -12 -4 -19 -1 -8 3 -5 6 6 6 11 1 17 -2 13 -5z m99
-39 c9 -8 11 -15 6 -15 -5 0 -15 7 -22 15 -7 8 -9 15 -6 15 4 0 14 -7 22 -15z
m-706 -81 c0 -15 -4 -23 -10 -19 -15 9 -225 -23 -287 -44 l-53 -18 0 23 c0 20
7 24 48 30 43 6 294 51 300 53 1 1 2 -11 2 -25z m1670 6 c-6 -11 -13 -20 -16
-20 -2 0 0 9 6 20 6 11 13 20 16 20 2 0 0 -9 -6 -20z m-2227 -7 c-13 -2 -35
-2 -50 0 -16 2 -5 4 22 4 28 0 40 -2 28 -4z m1160 -10 c-40 -2 -106 -2 -145 0
-40 1 -8 3 72 3 80 0 112 -2 73 -3z m-1583 -17 c0 -8 -61 -12 -66 -4 -3 4 11
8 30 8 20 0 36 -2 36 -4z m561 -37 c6 -17 23 -35 36 -40 20 -7 23 -15 23 -62
0 -50 -19 -97 -40 -97 -5 0 -14 17 -21 38 -18 55 -37 79 -71 91 -46 16 -79 13
-117 -10 l-34 -20 7 32 c3 17 6 46 6 64 l0 33 99 1 99 0 13 -30z m1078 14 c0
-5 -4 -17 -9 -28 -8 -19 -9 -19 -9 2 -1 18 -8 23 -38 26 -35 3 -34 4 10 5 26
1 47 -1 46 -5z m974 -8 c-3 -9 -8 -14 -10 -11 -3 3 -2 9 2 15 9 16 15 13 8 -4z
m-80 -130 c-15 -30 -31 -55 -35 -55 -4 0 -8 2 -8 4 0 7 62 106 66 106 2 0 -8
-25 -23 -55z m97 43 c0 -19 -18 -44 -25 -36 -4 3 0 15 7 27 15 24 18 26 18 9z
m-2220 -181 c0 -13 -83 56 -88 73 -3 7 16 -4 42 -25 25 -22 46 -43 46 -48z
m567 13 c225 -49 273 -62 273 -71 0 -4 -19 -5 -42 -3 l-43 4 50 -14 c28 -7 40
-14 29 -15 -12 0 -44 5 -70 13 -27 8 -103 22 -169 31 -66 10 -140 21 -165 25
-43 7 -43 7 -10 9 19 0 67 -6 105 -14 39 -8 106 -17 150 -19 44 -3 67 -3 50 0
-16 3 -67 11 -112 20 -45 8 -114 18 -154 24 -73 9 -99 24 -99 58 0 11 3 12 14
3 8 -7 94 -29 193 -51z m-646 13 c13 -16 12 -17 -3 -4 -10 7 -18 15 -18 17 0
8 8 3 21 -13z m1974 -33 c-3 -6 -42 -9 -88 -8 l-82 2 75 6 c41 4 81 7 88 8 7
1 10 -2 7 -8z m-1835 -36 c0 -27 36 -72 82 -104 28 -19 33 -28 30 -54 -2 -17
10 -71 28 -121 25 -75 29 -82 24 -42 -4 32 -3 47 5 47 6 0 11 -8 11 -19 0 -10
7 -37 15 -60 14 -39 13 -41 -6 -41 -11 0 -27 -7 -36 -15 -20 -20 -29 -13 -36
29 -3 19 -32 97 -65 173 -51 118 -82 201 -82 224 0 3 7 6 15 6 9 0 15 -10 15
-23z m1643 19 c-7 -2 -19 -2 -25 0 -7 3 -2 5 12 5 14 0 19 -2 13 -5z m-582
-14 c-22 -9 -92 -21 -197 -36 -27 -3 -44 -1 -49 7 -5 8 3 11 28 9 20 -2 39 0
43 4 4 4 30 7 58 8 28 1 62 5 76 9 14 4 34 8 45 8 17 1 16 -1 -4 -9z m-801
-30 c0 -6 -4 -8 -9 -4 -5 3 -12 1 -15 -4 -3 -5 6 -17 20 -26 18 -11 24 -12 18
-4 -6 10 -3 10 11 -1 17 -14 17 -15 -10 -18 -34 -4 -55 18 -55 60 0 26 2 28
20 18 11 -6 20 -15 20 -21z m137 21 c16 -6 65 -14 109 -19 75 -8 76 -8 23 -10
-60 -1 -168 17 -183 30 -14 12 14 11 51 -1z m461 3 c-10 -2 -26 -2 -35 0 -10
3 -2 5 17 5 19 0 27 -2 18 -5z m995 -14 c-14 -14 -363 -24 -363 -11 0 8 32 12
103 13 56 1 136 5 177 8 79 7 97 4 83 -10z m-1883 -102 c17 -44 30 -81 28 -83
-2 -2 -20 38 -41 88 -20 50 -32 87 -27 82 5 -5 23 -44 40 -87z m667 87 c-3 -3
-12 -4 -19 -1 -8 3 -5 6 6 6 11 1 17 -2 13 -5z m344 -19 c-40 -7 -80 -11 -89
-8 -10 4 -13 2 -8 -5 4 -7 1 -12 -8 -12 -8 0 -17 4 -21 9 -5 10 24 17 95 24
83 9 99 4 31 -8z m302 -2 c-13 -2 -35 -2 -50 0 -16 2 -5 4 22 4 28 0 40 -2 28
-4z m566 3 c-9 -9 -329 -27 -341 -19 -8 5 28 10 87 14 140 7 259 10 254 5z
m-794 -27 c-60 -10 -119 -18 -130 -16 -28 4 151 35 200 35 22 0 -9 -9 -70 -19z
m283 -1 c-5 -14 -123 -28 -141 -16 -11 6 7 13 63 21 55 9 82 7 78 -5z m72 -9
c0 -5 -7 -9 -15 -9 -8 0 -15 7 -15 15 0 9 6 12 15 9 8 -4 15 -10 15 -15z
m-252 -16 c-10 -2 -26 -2 -35 0 -10 3 -2 5 17 5 19 0 27 -2 18 -5z m-831 -111
c23 -59 62 -156 87 -217 45 -110 62 -170 46 -160 -4 3 -23 40 -40 83 -39 94
-107 232 -125 252 -13 15 -75 126 -75 134 0 5 28 13 50 15 10 0 29 -34 57
-107z m1007 92 c39 -15 4 -19 -172 -20 l-187 -1 95 12 c108 14 241 18 264 9z
m-1134 -105 c41 -77 137 -281 174 -371 9 -20 12 -39 7 -42 -4 -3 -13 12 -19
32 -7 21 -61 136 -122 256 -61 120 -105 216 -98 214 7 -2 33 -42 58 -89z m136
-139 c15 -36 42 -100 61 -144 18 -43 32 -81 29 -83 -6 -6 -87 164 -125 262
-23 61 -26 74 -11 55 10 -14 31 -54 46 -90z m-121 -109 c3 -5 1 -12 -5 -16 -5
-3 -10 1 -10 9 0 18 6 21 15 7z m-70 -31 c10 -11 13 -20 7 -20 -6 0 -16 9 -22
20 -6 11 -9 20 -7 20 2 0 12 -9 22 -20z m397 -72 c-6 -6 -15 -8 -19 -4 -4 4
-1 11 7 16 19 12 27 3 12 -12z m-112 -104 c0 -16 -23 -44 -35 -44 -19 0 -19
15 1 34 15 16 34 21 34 10z"/>
<path d="M6499 7909 c67 -30 104 -33 46 -4 -27 14 -59 24 -70 24 -13 0 -4 -8
24 -20z"/>
<path d="M7780 7193 c0 -5 12 -20 28 -34 l27 -24 -25 30 c-14 17 -26 32 -27
34 -2 2 -3 0 -3 -6z"/>
<path d="M7880 7103 c0 -6 8 -17 18 -24 16 -13 16 -13 2 6 -8 11 -16 22 -17
24 -2 2 -3 0 -3 -6z"/>
<path d="M7970 7045 c0 -2 10 -10 23 -16 20 -11 21 -11 8 4 -13 16 -31 23 -31
12z"/>
<path d="M8450 6532 c6 -13 14 -21 18 -18 3 4 -2 14 -12 24 -18 16 -18 16 -6
-6z"/>
<path d="M7200 3027 c-33 -11 -42 -35 -10 -29 8 1 77 5 153 9 75 3 137 9 137
13 0 22 -220 27 -280 7z"/>
<path d="M6245 2930 c-25 -11 1 -11 35 0 20 6 21 8 5 8 -11 0 -29 -3 -40 -8z"/>
<path d="M6198 2913 c7 -3 16 -2 19 1 4 3 -2 6 -13 5 -11 0 -14 -3 -6 -6z"/>
<path d="M5058 8283 c7 -3 16 -2 19 1 4 3 -2 6 -13 5 -11 0 -14 -3 -6 -6z"/>
<path d="M4128 8214 c-32 -17 -43 -35 -52 -85 -6 -32 -13 -38 -76 -69 -38 -18
-67 -36 -65 -40 2 -3 -12 -16 -31 -29 -19 -13 -34 -28 -34 -33 0 -5 -4 -6 -10
-3 -16 10 -12 -11 5 -25 12 -10 25 -10 62 0 111 28 213 47 213 38 0 -6 -20
-33 -45 -61 -47 -54 -61 -84 -23 -51 l22 19 -20 -26 c-10 -15 -22 -22 -25 -17
-4 6 -15 -2 -25 -16 -11 -15 -34 -47 -52 -71 -30 -41 -33 -62 -4 -33 6 6 15 9
18 5 12 -11 -65 -38 -116 -40 -26 -1 -47 -4 -45 -7 2 -3 -13 -5 -33 -5 -21 0
-112 -9 -204 -20 -93 -10 -171 -15 -175 -11 -17 17 101 98 254 174 95 48 129
72 103 72 -8 0 -10 9 -6 25 5 20 2 26 -18 31 -45 11 -70 1 -79 -33 -9 -29 -21
-37 -118 -80 -70 -31 -104 -50 -96 -56 7 -5 4 -6 -8 -3 -11 3 -33 -1 -49 -9
-15 -8 -36 -15 -45 -15 -9 0 -22 -5 -29 -12 -9 -9 -12 -7 -12 8 0 55 -98 91
-159 59 -45 -23 -75 -91 -69 -156 5 -48 5 -48 -41 -78 -25 -16 -68 -46 -96
-65 -37 -26 -51 -32 -53 -21 -2 8 -13 17 -25 21 -28 9 -59 -29 -55 -67 3 -23
-13 -41 -114 -133 -93 -84 -118 -103 -127 -92 -6 8 -25 16 -42 20 -75 15 -164
-89 -109 -127 22 -15 21 -16 -47 -104 -38 -48 -77 -100 -87 -115 -10 -15 -22
-25 -27 -22 -16 10 -46 -15 -64 -53 -23 -50 -86 -143 -97 -143 -5 0 -8 17 -6
37 2 29 -1 38 -15 41 -50 10 -63 -55 -18 -89 l29 -21 -79 -114 c-43 -63 -83
-132 -89 -153 -9 -35 -14 -39 -51 -45 -47 -8 -79 -22 -79 -36 0 -6 7 -10 16
-10 9 0 14 -6 11 -12 -2 -7 -11 -13 -21 -13 -24 0 -35 -22 -31 -62 4 -39 30
-74 51 -66 8 3 17 -2 20 -11 6 -15 -31 -234 -41 -244 -8 -9 -5 150 4 196 5 23
5 42 1 42 -11 0 -20 -65 -20 -142 0 -67 -5 -79 -27 -57 -15 15 -28 -78 -13
-96 15 -18 7 -58 -40 -196 -27 -84 -42 -114 -57 -120 -31 -11 -53 -49 -53 -90
0 -51 8 -67 40 -84 28 -14 28 -16 25 -92 -1 -43 -1 -62 1 -43 8 70 13 80 39
80 20 0 28 8 41 40 9 22 30 52 47 66 17 14 32 35 33 47 12 106 38 267 49 305
13 41 13 49 -1 71 -19 28 -15 86 10 146 13 31 19 36 26 25 8 -13 10 -13 10 2
0 19 18 34 28 23 4 -4 8 -93 9 -198 1 -106 6 -212 11 -237 l9 -45 2 46 c0 25
4 68 8 95 5 37 8 44 14 29 4 -11 8 71 8 182 -1 169 2 206 15 225 17 23 21 60
9 71 -4 4 -13 -7 -20 -24 -17 -41 -29 -31 -14 12 16 48 3 105 -31 134 l-28 24
44 41 c25 23 47 40 50 38 10 -6 126 176 131 207 4 17 26 54 49 82 l43 52 32
-44 c17 -24 31 -52 31 -62 0 -10 -20 -70 -44 -133 -50 -130 -63 -180 -47 -180
5 0 14 15 20 33 18 62 100 262 101 246 0 -9 -7 -35 -15 -58 -8 -23 -23 -97
-34 -165 -11 -68 -22 -129 -24 -137 -2 -8 -2 -11 0 -6 3 4 8 5 13 2 4 -2 10
14 14 37 9 54 81 239 106 271 11 14 24 36 29 49 8 19 10 20 10 4 1 -17 3 -18
19 -4 9 9 32 19 50 23 29 6 33 10 30 33 -2 22 -9 28 -34 30 -23 2 -37 -4 -62
-30 -58 -61 -68 -76 -88 -137 -10 -34 -22 -61 -26 -61 -11 0 -11 -1 12 65 11
32 20 74 20 94 0 20 4 42 9 50 7 10 2 24 -15 44 -13 16 -24 39 -24 52 0 24
150 257 195 304 32 33 52 22 59 -31 16 -142 26 -290 20 -314 -3 -16 -19 -72
-35 -124 -32 -104 -34 -114 -19 -105 12 8 12 3 1 -27 -10 -29 -24 -114 -17
-107 18 18 80 323 91 449 8 84 12 96 62 151 20 22 34 42 31 44 -9 10 -87 -57
-91 -78 -2 -12 -5 6 -6 41 -1 56 1 62 19 62 47 0 7 55 -49 66 -23 5 -29 9 -19
15 9 6 4 9 -14 9 -37 0 -39 37 -3 46 36 9 54 -1 48 -25 -4 -16 -1 -21 15 -21
12 0 23 4 26 9 10 16 -6 41 -26 41 -31 0 -16 23 28 44 34 17 251 180 279 210
6 6 40 35 76 63 65 52 112 97 79 78 -8 -5 -48 -35 -88 -67 -78 -62 -100 -74
-62 -33 27 29 177 134 166 117 -4 -7 -3 -12 3 -12 5 0 13 5 16 10 11 18 44 10
60 -14 15 -23 13 -27 -57 -127 -40 -57 -84 -113 -97 -123 -13 -11 -30 -34 -37
-53 -8 -18 -21 -33 -29 -33 -21 0 -19 -14 6 -36 36 -32 51 -72 48 -127 l-3
-52 33 -3 c36 -4 62 10 136 75 28 24 86 71 129 106 62 48 82 70 89 97 5 19 12
39 17 44 5 4 0 27 -9 50 -19 44 -56 185 -50 190 2 1 62 9 133 18 95 11 133 20
141 32 7 9 21 16 31 15 18 0 18 -1 -1 -10 -18 -8 -17 -9 5 -5 14 3 56 10 94
16 38 6 73 13 78 16 4 3 8 2 7 -3 0 -10 -144 -126 -187 -150 -18 -10 -30 -24
-27 -31 3 -8 5 -21 5 -31 0 -14 7 -16 35 -13 19 2 53 -3 75 -12 47 -18 96 -21
106 -5 11 19 -8 27 -91 42 l-80 14 37 15 c20 9 75 41 121 72 95 62 125 76 169
76 l30 0 -31 -35 c-17 -20 -45 -64 -62 -98 -39 -78 -54 -94 -92 -103 -17 -3
-50 -15 -74 -25 -58 -25 -67 -67 -28 -133 15 -26 36 -52 47 -60 19 -14 19 -14
-1 -46 -10 -18 -18 -38 -15 -44 2 -6 -10 -36 -26 -66 -58 -108 -74 -145 -73
-178 1 -32 0 -33 -28 -27 -18 4 -36 2 -44 -5 -19 -16 -19 -30 0 -30 18 0 19
-14 3 -40 -18 -28 0 -53 45 -64 31 -8 40 -6 72 18 31 24 40 26 65 18 15 -6 31
-8 34 -5 3 4 6 1 6 -5 0 -7 8 -12 18 -12 14 0 15 2 2 10 -13 9 -13 10 0 10 13
0 13 2 0 9 -8 6 -17 8 -21 5 -9 -5 -48 33 -65 62 -6 11 -25 20 -43 22 -41 4
-39 10 48 169 l68 122 53 -75 c29 -41 59 -79 66 -85 21 -17 4 30 -33 91 -18
30 -33 63 -33 72 0 9 -5 20 -11 24 -7 4 9 18 37 33 84 45 111 143 55 197 l-29
27 65 96 c98 144 78 142 195 24 56 -57 105 -103 110 -103 13 0 10 12 -9 33
-10 11 -12 17 -5 13 7 -4 12 -2 12 5 0 8 5 8 18 -2 9 -7 -16 18 -57 57 -41 38
-92 78 -113 90 l-40 20 39 12 c51 15 71 39 82 93 5 24 9 38 10 30 2 -27 285 8
314 39 10 10 -8 12 -98 8 -94 -5 -100 -4 -45 4 36 5 83 12 104 16 47 8 61 32
19 32 -36 0 -172 -26 -242 -46 -63 -18 -77 -13 -29 12 48 25 172 109 213 146
32 28 39 30 63 19 l27 -12 -25 21 c-14 11 -29 20 -34 20 -5 0 -2 8 7 18 10 10
17 23 17 29 0 6 5 13 11 15 7 2 -6 28 -29 62 -40 56 -41 57 -53 34 -7 -13 -12
-38 -10 -55 3 -38 -11 -42 -62 -19 -18 8 -39 17 -47 19 -8 3 -1 6 17 6 70 2
89 31 19 31 -76 0 -106 10 -106 35 0 54 -95 91 -152 59z m60 -16 c-4 -29 -38
-38 -38 -10 0 22 8 32 27 32 9 0 13 -8 11 -22z m-73 -108 c3 -6 -1 -7 -9 -4
-18 7 -21 14 -7 14 6 0 13 -4 16 -10z m181 -2 c4 -6 2 -14 -4 -16 -7 -2 -12
-10 -12 -18 0 -11 -9 -13 -42 -8 -24 4 -54 11 -68 15 l-25 7 25 2 c14 0 39 7
55 15 38 17 62 18 71 3z m-196 -25 c-24 -4 -91 -23 -135 -38 l-20 -7 20 13
c34 22 89 38 125 37 26 0 29 -2 10 -5z m243 -40 c-7 -2 -21 -2 -30 0 -10 3 -4
5 12 5 17 0 24 -2 18 -5z m-66 -22 c32 -11 85 -23 118 -27 50 -6 57 -9 41 -18
-10 -6 -53 -40 -95 -75 -113 -95 -112 -94 -150 -75 -22 11 -44 14 -69 9 -35
-6 -36 -6 -17 9 11 8 25 16 32 16 20 0 26 21 28 86 1 62 15 94 41 94 8 0 40
-9 71 -19z m167 11 c2 -4 -13 -6 -35 -4 -21 2 -39 6 -39 8 0 7 69 4 74 -4z
m-404 -246 c0 -2 -8 -10 -17 -17 -16 -13 -17 -12 -4 4 13 16 21 21 21 13z
m-800 -35 c15 -29 13 -33 -17 -29 -20 2 -29 9 -31 26 -4 28 33 31 48 3z m137
-7 c-3 -3 -12 -4 -19 -1 -8 3 -5 6 6 6 11 1 17 -2 13 -5z m83 2 c0 -7 -92 -56
-104 -56 -6 1 14 14 44 30 61 32 60 32 60 26z m557 -38 c2 -17 0 -19 -7 -8 -5
8 -6 18 -4 22 8 12 10 10 11 -14z m-687 -22 c0 -3 -4 -8 -10 -11 -5 -3 -10 -1
-10 4 0 6 5 11 10 11 6 0 10 -2 10 -4z m-96 -111 c-9 -14 -19 -24 -21 -21 -6
6 20 46 30 46 4 0 0 -11 -9 -25z m-10 -92 c-31 -57 -69 -114 -52 -78 2 6 13
28 23 50 19 42 53 95 61 95 3 0 -12 -30 -32 -67z m117 -67 c21 -55 35 -104 31
-107 -45 -40 -223 -178 -217 -169 11 18 8 76 -6 117 -10 31 -7 40 62 163 83
148 72 148 130 -4z m-471 -21 c-13 -14 -28 -25 -34 -25 -6 1 3 12 19 25 39 32
45 32 15 0z m-170 -139 c0 -2 -8 -10 -17 -17 -16 -13 -17 -12 -4 4 13 16 21
21 21 13z m380 -46 c0 -10 -4 -22 -10 -25 -6 -4 -10 7 -10 25 0 18 4 29 10 25
6 -3 10 -15 10 -25z m-47 0 c3 -11 1 -18 -4 -14 -5 3 -9 12 -9 20 0 20 7 17
13 -6z m-525 -19 c10 -6 7 -12 -13 -25 -30 -20 -52 -9 -42 18 7 17 34 21 55 7z
m1292 -91 c-6 -11 -13 -20 -16 -20 -2 0 0 9 6 20 6 11 13 20 16 20 2 0 0 -9
-6 -20z m-1400 -197 c-11 -16 -32 -45 -47 -65 -14 -21 -34 -38 -43 -38 -25 0
-43 25 -35 50 7 21 25 28 25 9 0 -5 4 -7 10 -4 5 3 20 8 32 10 12 3 33 18 46
35 13 16 26 30 29 30 2 0 -5 -12 -17 -27z m-165 -153 c-22 -25 -37 -26 -28 -2
11 31 25 44 36 33 7 -7 5 -17 -8 -31z m260 -97 c-5 -15 -4 -16 6 -5 7 6 17 12
22 12 13 0 -2 -19 -24 -30 -16 -9 -19 -7 -19 15 0 14 5 25 11 25 6 0 8 -7 4
-17z m-371 -65 c-79 -132 -172 -248 -198 -248 -6 0 13 24 41 53 28 28 74 87
102 130 29 42 54 77 57 77 3 0 2 -6 -2 -12z m-359 -955 c-9 -32 -24 -86 -32
-120 -14 -58 -25 -75 -36 -55 -3 4 13 61 34 127 27 81 40 140 41 185 l2 65 3
-72 c3 -46 -2 -93 -12 -130z m32 155 c-3 -7 -5 -2 -5 12 0 14 2 19 5 13 2 -7
2 -19 0 -25z m4 -127 c-6 -38 -11 -111 -11 -161 l0 -91 -30 18 c-16 9 -30 23
-30 30 0 8 13 54 29 102 16 49 33 110 36 135 4 26 10 45 12 42 3 -2 0 -36 -6
-75z m-60 8 c-5 -13 -10 -19 -10 -12 -1 15 10 45 15 40 3 -2 0 -15 -5 -28z
m-24 -71 c-3 -8 -6 -5 -6 6 -1 11 2 17 5 13 3 -3 4 -12 1 -19z m-59 -171 c-2
-12 -10 -22 -18 -22 -19 0 -25 41 -9 61 11 14 13 13 21 -1 5 -8 8 -26 6 -38z"/>
<path d="M6265 8070 c11 -5 29 -8 40 -8 16 0 15 2 -5 8 -34 11 -60 11 -35 0z"/>
<path d="M4637 7916 c-11 -27 18 -61 63 -74 25 -8 69 -21 98 -29 29 -9 51 -17
50 -19 -2 -1 -35 1 -73 6 -39 5 -74 5 -78 1 -13 -13 158 -52 378 -86 l30 -5
-28 13 c-15 7 -24 17 -20 22 5 4 3 5 -3 2 -16 -9 -79 4 -64 13 7 4 -9 12 -37
19 -26 6 -96 30 -155 53 -102 39 -108 43 -108 70 0 23 -4 28 -24 28 -13 0 -26
-6 -29 -14z"/>
<path d="M7270 7730 c8 -5 20 -10 25 -10 6 0 3 5 -5 10 -8 5 -19 10 -25 10 -5
0 -3 -5 5 -10z"/>
<path d="M5820 7721 c-12 -9 -11 -11 7 -11 12 0 23 -5 25 -11 5 -14 67 -25
186 -34 88 -7 92 -7 92 13 0 16 -10 22 -50 31 -77 17 -242 24 -260 12z"/>
<path d="M3568 7523 c6 -2 18 -2 25 0 6 3 1 5 -13 5 -14 0 -19 -2 -12 -5z"/>
<path d="M7303 7503 c9 -2 23 -2 30 0 6 3 -1 5 -18 5 -16 0 -22 -2 -12 -5z"/>
<path d="M5610 7463 c8 -3 17 -9 20 -13 17 -22 55 -39 66 -29 9 7 24 3 54 -16
23 -15 39 -22 36 -16 -9 14 -91 62 -111 65 -8 1 -18 5 -21 9 -4 4 -19 7 -33 6
-16 0 -20 -3 -11 -6z"/>
<path d="M2951 7373 c11 -18 11 -24 -1 -37 -7 -9 -11 -18 -9 -19 2 -1 15 -11
29 -22 l24 -20 -17 27 c-15 24 -15 28 -2 36 13 7 11 12 -11 33 -24 22 -25 22
-13 2z"/>
<path d="M3520 7356 c0 -15 -16 -16 -37 -3 -9 6 -11 3 -7 -8 5 -12 2 -16 -12
-13 -14 2 -18 -2 -16 -17 6 -30 8 -30 47 -1 29 23 47 56 30 56 -3 0 -5 -6 -5
-14z"/>
<path d="M5770 7357 c0 -6 91 -97 99 -98 16 -2 41 -8 61 -14 15 -5 20 -4 16 4
-4 6 -16 11 -27 11 -24 0 -25 20 -1 27 14 3 18 11 14 29 -3 19 -9 23 -24 18
-10 -3 -26 0 -35 8 -13 10 -17 10 -20 1 -6 -18 -29 -16 -58 3 -14 9 -25 14
-25 11z m92 -49 c-7 -7 -12 -8 -12 -2 0 14 12 26 19 19 2 -3 -1 -11 -7 -17z"/>
<path d="M4350 7323 c-20 -26 -20 -27 -2 -46 19 -18 21 -18 46 -2 31 20 34 50
7 65 -27 14 -27 14 -51 -17z"/>
<path d="M3005 7320 c3 -5 8 -10 11 -10 2 0 4 5 4 10 0 6 -5 10 -11 10 -5 0
-7 -4 -4 -10z"/>
<path d="M5820 7249 c0 -5 5 -7 10 -4 6 3 10 8 10 11 0 2 -4 4 -10 4 -5 0 -10
-5 -10 -11z"/>
<path d="M3670 7177 c-25 -23 -74 -68 -110 -100 -36 -31 -57 -54 -47 -51 9 3
17 10 17 15 0 5 5 9 11 9 5 0 7 -5 3 -11 -15 -24 18 -1 100 71 47 41 85 83 86
93 0 25 -10 21 -60 -26z"/>
<path d="M5157 7203 c-16 -15 -4 -34 51 -86 70 -67 199 -177 231 -200 21 -14
22 -17 7 -23 -21 -8 -41 -47 -50 -96 -4 -20 -13 -50 -21 -65 -8 -15 -15 -35
-15 -44 0 -8 -6 -21 -12 -28 -10 -11 -10 -13 0 -7 6 4 12 4 12 0 0 -7 -60
-119 -107 -201 -14 -24 -23 -43 -20 -43 5 0 67 103 141 232 15 26 24 53 20 59
-4 7 -3 9 4 5 6 -3 15 1 20 11 9 16 11 16 36 0 29 -19 78 -22 107 -7 38 21 61
98 43 145 -4 8 -20 23 -36 31 -22 12 -27 19 -19 27 6 6 11 31 11 56 l0 46 -21
-40 c-39 -74 -42 -75 -99 -17 -28 29 -56 50 -61 46 -5 -3 -8 0 -7 8 2 7 -3 12
-9 11 -7 -2 -12 0 -10 5 2 9 -76 82 -89 82 -5 0 -20 14 -33 30 -13 16 -28 27
-34 23 -5 -3 -7 -1 -4 4 8 12 -27 46 -36 36z"/>
<path d="M6352 7199 c2 -6 8 -10 13 -10 5 0 11 4 13 10 2 6 -4 11 -13 11 -9 0
-15 -5 -13 -11z"/>
<path d="M4090 7181 c19 -10 118 -44 220 -76 212 -65 312 -104 368 -145 l40
-28 -11 -46 c-11 -51 -6 -66 18 -46 19 16 25 10 34 -32 6 -27 14 -35 45 -45
57 -19 78 -4 75 53 -2 24 0 44 4 44 4 0 11 0 17 0 5 0 13 -18 16 -40 4 -22 12
-47 19 -57 11 -15 15 -14 40 13 25 26 27 34 21 83 -8 70 -12 74 -55 67 -33 -5
-40 -2 -60 24 -13 19 -31 30 -45 30 -13 0 -26 7 -30 15 -3 8 -11 15 -17 15 -8
0 -8 -4 1 -15 7 -9 10 -18 7 -22 -7 -6 -27 7 -107 72 -30 25 -75 60 -100 77
-25 18 -51 38 -58 45 -7 7 -18 13 -24 13 -14 0 148 -159 195 -190 20 -14 37
-28 37 -32 0 -4 -25 10 -55 31 -106 74 -497 212 -598 211 l-32 -1 35 -18z
m163 -31 c42 -13 76 -25 74 -27 -6 -5 -108 23 -147 41 -40 19 -34 17 73 -14z
m122 -40 c13 -6 15 -9 5 -9 -8 0 -22 4 -30 9 -18 12 -2 12 25 0z"/>
<path d="M6047 7159 c12 -12 24 -21 27 -18 2 2 -8 13 -22 23 l-27 19 22 -24z"/>
<path d="M6365 7138 c8 -26 99 -257 145 -367 17 -41 28 -76 26 -79 -3 -2 -17
5 -32 17 -18 14 -31 18 -37 12 -9 -9 -34 4 -97 53 -14 11 5 -10 41 -45 l66
-65 -5 -84 c-2 -47 -9 -91 -14 -97 -7 -9 -7 -13 0 -13 5 0 15 -14 21 -32 10
-28 6 -49 -26 -156 -36 -118 -39 -124 -72 -138 -33 -14 -33 -15 -16 -34 13
-14 16 -29 12 -57 -3 -21 -3 -30 -1 -20 8 26 22 20 26 -10 l4 -28 10 23 c10
24 11 23 60 -25 28 -26 69 -65 93 -86 l43 -39 -1 -171 c-1 -102 2 -167 8 -159
12 19 22 -38 10 -60 -5 -9 -8 -36 -7 -60 l1 -43 7 50 c4 28 8 40 8 28 1 -12 6
-24 10 -27 5 -3 6 67 4 155 l-5 159 36 -15 c20 -8 50 -15 66 -15 54 0 92 68
68 120 -15 30 -72 70 -102 70 -21 0 -23 5 -29 118 -3 64 -11 177 -18 250 -10
123 -10 134 7 152 10 11 24 20 31 20 21 0 36 39 36 93 0 44 -4 53 -40 89 -34
35 -48 41 -98 48 l-59 7 52 2 c47 1 53 4 72 35 12 18 21 36 21 39 0 10 -29 1
-47 -15 -23 -19 -63 -41 -69 -36 -2 2 -15 43 -29 91 -29 100 -114 339 -123
348 -4 4 -20 9 -35 13 -26 6 -28 5 -22 -16z m224 -737 c7 -5 15 -28 17 -52 30
-351 36 -431 31 -436 -3 -3 -16 5 -29 18 -13 13 -31 24 -40 24 -25 0 -128 93
-128 116 0 11 7 19 17 19 16 0 16 1 2 16 -14 14 -15 20 -2 56 18 53 12 71 -10
27 -9 -19 -17 -28 -17 -22 0 7 9 27 19 45 11 17 18 35 15 39 -2 4 0 10 6 14 5
3 10 16 10 28 1 33 33 86 61 102 30 16 31 17 48 6z m68 -223 c-3 -8 -6 -5 -6
6 -1 11 2 17 5 13 3 -3 4 -12 1 -19z m-223 -37 c3 -5 -6 -17 -20 -26 -26 -17
-26 -10 -1 23 11 14 14 15 21 3z m245 -213 c1 -21 -2 -38 -6 -38 -5 0 -9 21
-10 48 -1 26 -4 79 -7 117 l-5 70 14 -80 c7 -44 14 -97 14 -117z"/>
<path d="M6495 6040 c10 -11 20 -20 23 -20 3 0 -3 9 -13 20 -10 11 -20 20 -23
20 -3 0 3 -9 13 -20z"/>
<path d="M6540 5979 c7 -11 14 -19 16 -16 7 7 -7 37 -17 37 -6 0 -5 -9 1 -21z"/>
<path d="M2718 7133 c7 -3 16 -2 19 1 4 3 -2 6 -13 5 -11 0 -14 -3 -6 -6z"/>
<path d="M2759 7098 c4 -28 6 -29 9 -9 2 13 0 27 -5 32 -6 6 -7 -3 -4 -23z"/>
<path d="M6160 7111 c0 -10 -9 -30 -20 -44 -11 -14 -20 -40 -20 -58 0 -18 -7
-40 -15 -49 -13 -14 -11 -16 11 -15 14 1 30 8 34 15 7 12 13 11 32 -5 14 -12
18 -14 10 -4 -7 9 -9 25 -5 34 4 13 3 16 -6 11 -13 -8 5 28 33 69 20 29 4 65
-29 65 -18 0 -25 -5 -25 -19z"/>
<path d="M5567 7083 c-4 -3 -7 -20 -6 -37 l1 -31 8 35 c9 36 8 45 -3 33z"/>
<path d="M3726 6985 c-13 -25 -21 -43 -15 -40 10 7 52 85 45 85 -2 0 -16 -20
-30 -45z"/>
<path d="M3451 6966 c-43 -32 -144 -172 -135 -187 4 -8 3 -9 -4 -5 -7 4 -34
-25 -68 -71 -141 -191 -149 -203 -140 -203 2 0 21 22 41 50 20 27 42 49 48 47
7 -1 11 6 11 15 -1 10 2 16 6 13 7 -4 90 86 146 160 64 85 144 205 136 205 -4
0 -23 -11 -41 -24z m-203 -286 c-22 -30 -35 -41 -22 -17 9 16 36 47 41 47 2 0
-6 -13 -19 -30z"/>
<path d="M3461 6904 c0 -11 3 -14 6 -6 3 7 2 16 -1 19 -3 4 -6 -2 -5 -13z"/>
<path d="M6260 6875 c13 -14 26 -25 28 -25 3 0 -5 11 -18 25 -13 14 -26 25
-28 25 -3 0 5 -11 18 -25z"/>
<path d="M3970 6886 c0 -2 6 -9 13 -15 10 -8 14 -7 14 4 0 8 -6 15 -14 15 -7
0 -13 -2 -13 -4z"/>
<path d="M6789 6873 c-13 -16 -12 -17 4 -4 9 7 17 15 17 17 0 8 -8 3 -21 -13z"/>
<path d="M6712 6828 c-7 -7 -11 -21 -11 -32 1 -21 1 -21 6 -1 3 11 10 26 15
33 13 15 6 16 -10 0z"/>
<path d="M4016 6822 c6 -4 13 -15 17 -24 3 -10 11 -18 17 -18 6 0 3 11 -6 25
-9 14 -21 25 -28 25 -8 0 -8 -3 0 -8z"/>
<path d="M2542 6788 c-16 -16 -15 -50 2 -74 17 -23 24 -18 32 22 7 37 -15 71
-34 52z"/>
<path d="M4064 6755 c8 -8 18 -15 22 -15 3 0 1 7 -6 15 -7 8 -17 15 -22 15 -5
0 -3 -7 6 -15z"/>
<path d="M8180 6693 c0 -10 102 -162 153 -226 54 -69 39 -31 -21 54 -32 46
-68 100 -80 120 -24 40 -52 67 -52 52z"/>
<path d="M3872 6658 c2 -6 10 -14 18 -16 8 -3 10 0 6 9 -4 8 -1 6 6 -3 8 -9
19 -13 26 -9 9 5 4 11 -13 19 -33 15 -48 15 -43 0z"/>
<path d="M4939 6580 c-4 -43 42 -195 86 -282 16 -34 21 -68 6 -52 -4 5 -14 25
-21 44 -51 140 -80 211 -75 185 3 -16 24 -80 46 -142 l41 -112 -27 -36 c-23
-30 -27 -42 -23 -80 7 -54 28 -89 68 -110 26 -14 34 -14 65 -1 64 27 92 104
60 166 -21 40 -53 60 -100 61 l-40 2 42 6 c47 8 78 33 106 83 18 32 17 32 -17
-7 -19 -22 -40 -40 -45 -40 -5 0 -13 -3 -17 -7 -18 -18 -34 -5 -44 35 -15 59
-80 247 -96 277 -8 16 -14 20 -15 10z"/>
<path d="M5963 6557 c-4 -8 -16 -16 -25 -20 -29 -10 -57 -79 -59 -146 -1 -34
-6 -64 -11 -67 -4 -3 -8 -12 -8 -21 0 -15 2 -15 18 0 13 12 32 14 82 10 45 -3
79 0 109 10 25 9 47 14 50 12 12 -7 12 97 0 111 -8 9 -8 14 -1 14 6 0 16 -8
21 -17 6 -10 11 -13 11 -6 1 33 -101 113 -145 113 -8 0 -15 5 -15 10 0 14 -18
12 -27 -3z"/>
<path d="M4273 6523 c-28 -5 -28 -4 -1 -49 21 -36 21 -38 5 -84 -9 -26 -17
-55 -17 -64 0 -9 -11 -39 -25 -66 -36 -71 -23 -62 16 11 24 44 43 66 70 79
l37 19 0 68 c1 91 -9 101 -85 86z"/>
<path d="M6388 6463 c6 -2 18 -2 25 0 6 3 1 5 -13 5 -14 0 -19 -2 -12 -5z"/>
<path d="M3340 6445 c-7 -9 -19 -14 -25 -11 -18 7 -152 -131 -139 -144 6 -6
40 20 99 80 49 50 87 90 84 90 -4 0 -12 -7 -19 -15z"/>
<path d="M4380 6426 c0 -2 7 -7 16 -10 8 -3 12 -2 9 4 -6 10 -25 14 -25 6z"/>
<path d="M5185 6400 c-9 -16 -13 -30 -11 -30 3 0 12 14 21 30 9 17 13 30 11
30 -3 0 -12 -13 -21 -30z"/>
<path d="M5213 6388 c-15 -20 -25 -38 -20 -38 3 0 12 11 21 25 17 26 16 35 -1
13z"/>
<path d="M4720 6310 c-11 -7 -8 -10 16 -10 16 0 35 -5 42 -12 6 -6 14 -9 18
-6 3 4 -8 14 -25 22 -35 19 -32 18 -51 6z"/>
<path d="M5725 6280 c-110 -24 -129 -30 -70 -23 28 3 66 7 85 8 55 3 101 16
94 26 -7 11 -11 11 -109 -11z"/>
<path d="M2058 6263 c-27 -7 -48 -18 -48 -22 0 -8 88 13 98 24 12 12 -7 11
-50 -2z"/>
<path d="M3086 6199 c-23 -24 -45 -38 -55 -35 -9 3 -29 8 -46 12 -29 7 -30 7
-12 -13 18 -21 23 -58 8 -67 -4 -3 -19 4 -32 15 l-23 20 -26 -53 c-20 -42 -32
-55 -57 -63 -18 -5 -32 -14 -31 -20 2 -19 -14 -45 -29 -45 -8 0 -11 -4 -8 -10
3 -5 0 -7 -7 -5 -13 5 -187 -103 -301 -187 -32 -24 -81 -55 -109 -70 l-51 -28
-28 21 c-27 19 -28 22 -14 42 8 12 15 26 15 32 -1 5 -8 -2 -16 -17 -13 -25
-20 -28 -68 -28 -43 0 -57 -4 -76 -25 -22 -23 -22 -25 -6 -49 9 -14 16 -36 16
-50 0 -62 32 -101 95 -117 l43 -11 4 -56 c3 -32 15 -95 27 -142 13 -47 25
-123 27 -170 2 -47 10 -109 18 -138 13 -49 13 -53 -2 -50 -9 2 -25 20 -35 41
-20 42 -32 50 -17 11 14 -36 13 -44 -8 -44 -10 0 -27 -6 -38 -14 -19 -13 -25
-10 -83 49 -34 36 -60 68 -57 74 3 5 33 -19 67 -52 67 -68 68 -60 2 21 -24 29
-43 56 -43 61 0 4 -10 18 -22 30 -18 20 -19 27 -9 44 12 18 11 19 -8 14 -42
-11 -65 23 -72 109 -4 44 -8 109 -8 147 l-1 67 -21 -21 c-19 -19 -21 -30 -17
-113 l3 -92 -47 50 c-25 28 -49 48 -53 44 -14 -13 15 -62 79 -138 35 -41 62
-77 60 -79 -3 -3 -26 19 -52 49 -106 122 -118 127 -18 6 38 -45 56 -76 54 -90
-2 -11 4 -27 12 -34 13 -12 12 -13 -7 -9 -18 4 -23 1 -23 -14 0 -14 7 -19 28
-19 19 0 23 -3 13 -9 -12 -8 -12 -10 0 -13 8 -3 1 -3 -15 0 -19 3 -26 1 -22
-7 4 -6 16 -11 27 -11 23 0 23 12 -2 -156 -13 -85 -19 -167 -17 -211 5 -81 -2
-72 150 -187 138 -103 178 -128 178 -109 0 30 -199 201 -277 238 -31 15 -32
17 -27 68 8 82 24 207 35 265 l10 52 30 -21 c28 -20 99 -115 112 -151 3 -9 21
-21 39 -26 27 -7 34 -14 36 -38 1 -16 14 -112 28 -212 14 -101 23 -186 20
-189 -3 -3 10 -36 29 -73 33 -65 46 -79 170 -183 32 -27 28 -50 -5 -29 -24 15
-34 19 -140 70 -47 22 -110 50 -140 62 -70 27 -80 36 -169 152 -40 54 -79 102
-86 108 -9 7 -11 32 -8 83 4 61 2 70 -9 56 -7 -9 -33 -20 -58 -24 -40 -7 -43
-6 -31 9 7 8 11 22 8 30 -7 17 11 36 35 36 18 0 18 1 -1 28 -11 15 -41 76 -67
136 -36 85 -48 129 -57 202 -9 82 -13 93 -31 96 -15 2 -23 13 -28 38 l-7 35 3
-37 c1 -30 -2 -38 -15 -38 -15 0 -16 5 -8 33 5 17 9 46 8 62 -2 44 1 52 11 30
7 -17 9 -14 9 14 1 30 -1 32 -16 20 -28 -22 -30 -28 -37 -90 -7 -56 -8 -59
-35 -59 -33 0 -78 -38 -86 -73 -8 -32 11 -134 31 -164 18 -28 60 -46 91 -40
15 3 20 0 16 -10 -7 -17 51 -163 87 -222 24 -38 26 -47 16 -73 -8 -23 -7 -34
4 -56 14 -23 23 -27 70 -30 30 -2 58 -9 61 -15 29 -51 137 -186 149 -187 9 -1
6 -5 -7 -10 -17 -7 -23 -18 -23 -39 0 -42 17 -48 49 -17 l28 27 108 -51 c60
-27 106 -53 103 -55 -3 -3 -49 15 -103 40 -54 25 -99 45 -100 45 -2 0 -5 -9
-8 -21 -5 -17 -2 -20 15 -16 13 4 59 -12 122 -42 56 -27 129 -61 163 -77 50
-23 63 -34 63 -51 0 -13 11 -30 25 -39 23 -15 27 -15 49 0 23 15 24 18 11 43
-13 24 -12 29 2 45 32 36 93 8 93 -43 0 -36 23 -39 51 -6 l18 22 1 -30 c0 -16
4 -35 8 -41 21 -32 103 -45 143 -23 11 5 24 22 30 36 l9 25 138 -7 c95 -5 142
-11 153 -21 17 -15 86 -19 107 -6 9 7 8 13 -8 27 -15 13 -20 31 -20 66 0 44
-3 49 -36 69 -48 30 -32 47 28 32 75 -20 196 -42 225 -41 15 0 -25 12 -90 25
-65 14 -142 34 -170 45 -29 11 -81 31 -117 44 -36 13 -102 37 -147 54 -46 16
-83 26 -83 22 0 -5 7 -12 16 -15 8 -3 13 -10 9 -16 -3 -5 16 -19 42 -31 163
-73 313 -150 309 -158 -4 -5 -90 31 -192 81 -102 49 -187 88 -189 86 -2 -2 75
-43 171 -93 96 -49 174 -94 174 -100 0 -6 -61 -9 -166 -8 -145 1 -168 3 -185
19 -12 11 -36 19 -58 19 -37 0 -39 1 -50 46 -7 25 -26 61 -42 80 -17 19 -27
27 -22 19 13 -25 33 -84 33 -101 0 -29 -60 -8 -174 62 -61 38 -110 73 -108 79
1 5 -4 10 -11 10 -7 0 -29 14 -47 30 -18 17 -39 30 -46 30 -13 0 -24 45 -24
104 0 43 -35 294 -45 327 -5 16 -1 19 29 19 42 0 76 37 76 84 l0 31 65 -3 c42
-3 65 0 65 7 0 6 10 12 23 12 16 1 18 2 5 6 -24 6 -23 15 7 43 35 33 85 113
85 135 0 11 -12 -5 -27 -34 -15 -29 -43 -71 -62 -93 l-35 -40 -69 5 c-37 2
-73 9 -79 15 -5 5 -23 86 -39 179 -16 92 -39 221 -50 287 l-21 118 21 22 c30
32 42 74 35 123 -5 37 -4 43 12 43 19 0 144 76 274 166 85 59 177 114 190 114
23 0 20 -61 -8 -141 -16 -47 -44 -137 -62 -202 l-32 -117 -31 0 c-28 0 -101
-40 -119 -65 -10 -13 -10 -60 -1 -69 4 -4 13 14 19 41 l12 48 1 -60 c1 -75 25
-125 68 -144 32 -14 33 -16 28 -65 -6 -64 -14 -560 -8 -526 27 168 30 212 27
385 l-4 190 40 17 c47 19 62 49 63 125 1 48 -2 56 -31 80 l-32 28 25 70 c14
39 42 126 61 195 20 69 47 155 62 192 22 57 30 67 54 70 15 3 32 2 37 -1 5 -4
25 -53 45 -111 39 -117 84 -223 86 -200 0 12 4 11 15 -4 25 -33 17 -5 -46 175
-33 94 -57 175 -52 178 69 47 85 66 79 94 -3 16 -16 37 -28 47 l-23 19 40 40
c21 23 35 41 30 40 -6 0 -28 -18 -49 -40z m-867 -550 c-22 -14 -33 -10 -19 6
7 8 17 12 22 9 6 -4 5 -10 -3 -15z m501 -274 c16 -20 6 -45 -19 -45 -20 0 -37
32 -26 50 9 15 31 12 45 -5z m-632 -335 c-7 -11 -16 -20 -21 -20 -4 0 -3 9 3
20 6 11 15 20 20 20 6 0 5 -9 -2 -20z m49 -120 c67 -51 69 -59 2 -14 -28 19
-57 34 -65 34 -8 0 -14 5 -14 10 0 19 23 10 77 -30z m63 -117 c0 -44 -5 -41
-14 10 -5 27 -4 37 3 32 6 -3 11 -22 11 -42z m-445 -133 c10 -25 26 -54 35
-65 28 -33 33 -45 15 -39 -14 6 -85 139 -85 160 0 15 16 -11 35 -56z m124
-100 c0 -8 -6 0 -14 19 -8 18 -15 36 -15 40 1 13 29 -45 29 -59z m618 -450 c4
0 35 -16 68 -36 33 -20 91 -52 128 -71 46 -24 67 -40 65 -51 -4 -18 -2 -18
-95 9 -80 24 -123 56 -195 141 -40 48 -41 51 -11 30 17 -12 35 -22 40 -22z
m490 -186 c-3 -3 -12 -4 -19 -1 -8 3 -5 6 6 6 11 1 17 -2 13 -5z m243 -28 c0
-9 -24 -10 -92 -4 -50 5 -94 11 -97 14 -3 2 38 4 92 3 66 -1 97 -5 97 -13z"/>
<path d="M7204 6128 c-17 -27 -41 -108 -29 -98 7 5 14 7 18 4 3 -3 12 3 19 15
20 32 26 26 33 -36 4 -32 15 -108 26 -169 10 -61 21 -160 25 -220 9 -143 21
-184 25 -84 l3 75 6 -80 6 -80 4 65 3 65 7 -65 7 -65 1 60 c2 72 -30 334 -58
465 -11 52 -20 105 -20 116 0 28 -26 38 -40 16 -10 -15 -10 -15 -8 2 4 23 -17
33 -28 14z m113 -465 c-3 -10 -5 -4 -5 12 0 17 2 24 5 18 2 -7 2 -21 0 -30z"/>
<path d="M4064 5999 c-20 -42 -33 -78 -29 -88 5 -13 9 -12 20 9 7 14 11 28 9
31 -2 4 2 9 10 12 9 4 12 14 9 25 -2 11 3 34 11 51 9 17 14 31 11 31 -2 0 -21
-32 -41 -71z"/>
<path d="M2182 6010 c0 -14 2 -19 5 -12 2 6 2 18 0 25 -3 6 -5 1 -5 -13z"/>
<path d="M7131 5987 c-8 -12 -21 -32 -29 -44 -8 -13 -12 -23 -8 -23 7 0 59 81
54 85 -2 2 -10 -6 -17 -18z"/>
<path d="M2162 5976 c3 -4 0 -30 -8 -58 -9 -27 -13 -55 -11 -61 2 -6 11 17 19
51 12 46 13 64 4 69 -6 3 -8 3 -4 -1z"/>
<path d="M6391 5964 c0 -11 3 -14 6 -6 3 7 2 16 -1 19 -3 4 -6 -2 -5 -13z"/>
<path d="M1892 5900 c0 -19 2 -27 5 -17 2 9 2 25 0 35 -3 9 -5 1 -5 -18z"/>
<path d="M3908 5892 c-23 -13 -28 -24 -28 -55 0 -35 1 -37 16 -23 36 37 53 39
100 11 24 -14 44 -30 44 -36 0 -6 5 -7 10 -4 6 3 10 22 10 41 0 72 -84 109
-152 66z"/>
<path d="M1882 5815 c0 -16 2 -22 5 -12 2 9 2 23 0 30 -3 6 -5 -1 -5 -18z"/>
<path d="M6292 5783 c-7 -25 -11 -47 -9 -50 2 -2 10 17 17 42 7 25 11 48 8 50
-2 2 -10 -16 -16 -42z"/>
<path d="M2296 5793 c-6 -14 -5 -15 5 -6 7 7 10 15 7 18 -3 3 -9 -2 -12 -12z"/>
<path d="M6245 5655 c-9 -26 -15 -48 -12 -51 3 -3 12 16 21 42 21 62 14 68 -9
9z"/>
<path d="M6246 5585 c-3 -9 -6 -24 -5 -33 0 -9 5 -4 10 12 9 32 6 48 -5 21z"/>
<path d="M7775 5579 c-4 -6 -5 -12 -2 -15 2 -3 7 2 10 11 7 17 1 20 -8 4z"/>
<path d="M7005 5555 c22 -14 71 -42 108 -62 37 -20 72 -44 77 -53 7 -13 28
-19 77 -24 37 -4 77 -9 88 -12 19 -5 19 -4 2 9 -10 8 -27 12 -39 9 -14 -3 -19
-1 -14 6 4 8 0 12 -11 12 -10 0 -81 30 -158 66 -165 77 -184 84 -130 49z"/>
<path d="M7938 5503 c4 -20 -4 -33 -33 -59 l-39 -34 45 0 c49 0 89 22 89 48 0
24 -26 59 -48 64 -15 4 -18 1 -14 -19z"/>
<path d="M6119 5496 c-41 -28 -69 -66 -69 -94 0 -28 37 -70 74 -86 27 -11 36
-25 55 -75 12 -33 24 -61 25 -61 6 0 -1 94 -8 115 -6 16 0 24 29 39 19 11 37
29 40 40 15 80 15 88 -8 115 -31 36 -90 39 -138 7z"/>
<path d="M7589 5489 c-23 -19 -23 -20 -2 -9 12 6 43 11 67 12 26 1 40 6 33 10
-23 15 -75 8 -98 -13z"/>
<path d="M3951 5464 c0 -11 3 -14 6 -6 3 7 2 16 -1 19 -3 4 -6 -2 -5 -13z"/>
<path d="M2219 5423 c-17 -46 -15 -117 3 -111 10 4 21 138 11 138 -2 0 -8 -12
-14 -27z"/>
<path d="M7740 5395 c-11 -13 -10 -14 4 -9 9 3 16 10 16 15 0 13 -6 11 -20 -6z"/>
<path d="M3337 5252 c2 -10 18 -34 35 -53 31 -35 30 -32 -11 34 -26 41 -31 46
-24 19z"/>
<path d="M3332 5190 c19 -36 46 -84 59 -107 23 -40 23 -42 5 -62 -13 -14 -19
-37 -20 -78 -1 -54 1 -58 33 -80 21 -14 28 -23 17 -23 -20 0 -203 -162 -239
-212 -15 -21 -24 -38 -21 -38 7 0 189 154 246 208 59 57 86 58 141 5 36 -33
83 -72 160 -132 9 -8 20 -11 23 -8 3 3 -28 39 -70 80 -60 59 -72 77 -63 88 10
11 9 11 -3 2 -25 -19 -35 -2 -36 63 -1 34 -9 74 -18 93 -19 37 -69 71 -95 64
-11 -3 -22 5 -31 24 -17 31 -98 152 -113 168 -5 6 6 -19 25 -55z"/>
<path d="M6221 5204 c0 -11 3 -14 6 -6 3 7 2 16 -1 19 -3 4 -6 -2 -5 -13z"/>
<path d="M6611 5176 c-48 -27 -65 -95 -35 -141 15 -23 14 -28 -9 -78 -28 -58
-53 -145 -44 -153 3 -3 10 11 17 30 6 20 16 34 21 31 9 -6 12 4 10 45 0 19 1
21 7 8 5 -14 11 -8 25 26 l18 44 61 4 c52 4 65 9 85 33 17 20 24 37 21 56 -3
18 1 30 9 34 8 3 13 15 11 27 -2 17 -10 23 -28 24 -14 1 -38 6 -53 13 -37 15
-86 14 -116 -3z"/>
<path d="M6555 5150 c3 -5 8 -10 11 -10 2 0 4 5 4 10 0 6 -5 10 -11 10 -5 0
-7 -4 -4 -10z"/>
<path d="M3410 5143 c0 -6 8 -17 18 -24 16 -13 16 -13 2 6 -8 11 -16 22 -17
24 -2 2 -3 0 -3 -6z"/>
<path d="M6220 5144 c0 -6 7 -19 16 -30 14 -18 14 -18 3 6 -14 31 -19 36 -19
24z"/>
<path d="M6250 5082 c1 -4 9 -23 20 -42 18 -33 19 -34 20 -10 0 14 -9 33 -20
43 -11 9 -20 13 -20 9z"/>
<path d="M4043 5063 c-13 -2 -36 -18 -53 -34 -24 -25 -30 -38 -29 -72 l2 -42
6 43 c12 68 41 87 132 83 64 -3 87 -64 38 -105 -16 -13 -45 -30 -65 -36 -20
-7 -47 -18 -61 -25 -23 -12 -24 -14 -7 -23 11 -5 31 -12 47 -16 18 -4 27 -13
27 -27 0 -11 7 -33 15 -49 8 -16 14 -44 13 -62 -2 -33 17 -128 53 -267 11 -40
17 -76 14 -79 -2 -3 -14 3 -24 12 -11 10 -24 15 -30 12 -6 -4 -36 7 -68 25
-39 21 -50 24 -33 10 32 -27 169 -121 176 -121 3 0 3 19 -1 43 l-7 42 20 -19
c21 -18 21 -18 15 16 -3 20 -29 128 -57 242 l-52 206 38 11 c23 6 45 20 55 37
10 15 21 30 26 33 5 4 4 10 -2 13 -6 4 -11 24 -11 44 0 82 -74 125 -177 105z
m100 -458 l6 -30 -14 30 c-16 34 -21 72 -6 45 5 -8 11 -28 14 -45z"/>
<path d="M7570 5046 c0 -2 8 -10 18 -17 15 -13 16 -12 3 4 -13 16 -21 21 -21
13z"/>
<path d="M6300 4980 c0 -8 5 -22 10 -30 9 -13 10 -13 10 0 0 8 -5 22 -10 30
-9 13 -10 13 -10 0z"/>
<path d="M5086 4909 c-17 -52 -15 -84 5 -77 8 3 23 128 14 128 -1 0 -10 -23
-19 -51z"/>
<path d="M6344 4897 c5 -30 18 -57 27 -57 6 0 7 -4 4 -10 -3 -5 -1 -10 5 -10
6 0 8 -5 4 -12 -4 -6 -3 -8 4 -5 11 7 10 13 -3 60 -7 28 -45 60 -41 34z"/>
<path d="M7750 4906 c0 -2 8 -10 18 -17 15 -13 16 -12 3 4 -13 16 -21 21 -21
13z"/>
<path d="M4658 4883 c23 -2 61 -2 85 0 23 2 4 4 -43 4 -47 0 -66 -2 -42 -4z"/>
<path d="M4948 4873 c12 -2 32 -2 45 0 12 2 2 4 -23 4 -25 0 -35 -2 -22 -4z"/>
<path d="M5182 4870 c-21 -9 -23 -15 -20 -81 4 -87 15 -99 77 -80 26 7 39 16
35 23 -5 7 -2 8 5 4 19 -12 71 14 77 39 9 35 2 56 -26 77 -30 22 -115 32 -148
18z"/>
<path d="M1988 4850 c-4 -14 -9 -63 -12 -110 l-5 -85 15 80 c15 80 16 171 2
115z"/>
<path d="M3130 4850 c-79 -17 -81 -18 -25 -13 33 3 78 11 100 18 58 19 23 16
-75 -5z"/>
<path d="M3595 4860 c-3 -6 1 -7 9 -4 18 7 21 14 7 14 -6 0 -13 -4 -16 -10z"/>
<path d="M3245 4849 c-16 -4 -47 -11 -69 -14 -21 -4 -36 -9 -33 -12 3 -2 56 1
119 8 79 9 105 15 88 20 -33 9 -68 9 -105 -2z"/>
<path d="M3098 4813 c6 -2 18 -2 25 0 6 3 1 5 -13 5 -14 0 -19 -2 -12 -5z"/>
<path d="M2448 4773 c7 -3 16 -2 19 1 4 3 -2 6 -13 5 -11 0 -14 -3 -6 -6z"/>
<path d="M7568 4773 c34 -2 88 -2 120 0 31 2 3 3 -63 3 -66 0 -92 -1 -57 -3z"/>
<path d="M6100 4700 c100 -20 137 -24 128 -14 -7 7 -176 34 -203 33 -11 -1 23
-9 75 -19z"/>
<path d="M6258 4673 c7 -3 16 -2 19 1 4 3 -2 6 -13 5 -11 0 -14 -3 -6 -6z"/>
<path d="M6410 4627 c-46 -24 -15 -107 40 -107 22 0 60 45 60 70 0 22 -31 50
-56 50 -10 0 -30 -6 -44 -13z"/>
<path d="M3109 4543 c-13 -16 -12 -17 4 -4 16 13 21 21 13 21 -2 0 -10 -8 -17
-17z"/>
<path d="M3890 4528 c0 -28 -17 -82 -41 -133 -26 -54 -24 -57 15 -34 48 28 68
97 50 167 -8 28 -24 29 -24 0z"/>
<path d="M6610 4531 c0 -27 22 -35 170 -67 257 -55 365 -75 399 -72 35 3 34 4
-29 25 -84 29 -193 57 -300 78 -47 9 -105 22 -130 30 -25 7 -60 17 -77 20 -29
6 -33 4 -33 -14z"/>
<path d="M3060 4505 c-17 -20 -67 -56 -83 -59 -31 -7 -49 -21 -63 -48 -19 -37
-12 -34 78 39 64 52 96 83 85 83 -2 0 -10 -7 -17 -15z"/>
<path d="M6410 4495 c-7 -9 -11 -18 -8 -20 3 -3 11 1 18 10 7 9 11 18 8 20 -3
3 -11 -1 -18 -10z"/>
<path d="M6447 4503 c-4 -3 -7 -11 -7 -17 0 -6 5 -5 12 2 6 6 9 14 7 17 -3 3
-9 2 -12 -2z"/>
<path d="M1995 4470 c3 -5 43 -38 88 -72 117 -89 191 -150 195 -159 4 -11 32
-12 32 -1 -1 4 -23 23 -50 42 -94 68 -238 179 -245 189 -3 6 -11 11 -16 11 -6
0 -7 -4 -4 -10z"/>
<path d="M5459 4448 c35 -40 18 -47 -19 -8 -17 18 -32 31 -35 29 -2 -3 50 -60
116 -127 l120 -122 62 0 c44 0 58 3 47 10 -8 5 -31 10 -50 10 -32 0 -46 11
-150 118 -63 65 -104 106 -91 90z"/>
<path d="M2693 4382 c-40 -6 -73 -47 -73 -91 0 -37 3 -42 40 -61 21 -11 44
-29 50 -40 10 -18 19 -21 77 -18 65 3 66 4 85 40 17 32 18 45 10 85 -7 32 -7
50 0 54 5 3 -1 9 -14 13 -31 10 -148 22 -175 18z"/>
<path d="M4666 4361 c-17 -11 -34 -17 -39 -14 -6 3 -7 1 -3 -5 4 -7 2 -13 -3
-13 -16 -2 -23 -4 -54 -17 -16 -7 -31 -12 -35 -12 -27 0 -86 -25 -112 -47 -30
-24 -31 -25 -50 -8 -18 16 -20 16 -20 2 0 -9 -10 -25 -22 -37 -26 -24 -15 -41
26 -43 14 -1 26 -7 26 -14 0 -8 -11 -10 -34 -6 -24 4 -49 -1 -81 -17 -54 -26
-55 -37 -1 -15 21 9 35 12 32 6 -8 -13 -138 -73 -144 -66 -3 3 -1 5 4 5 5 0
20 10 34 21 14 11 -15 0 -65 -24 -49 -25 -101 -48 -115 -52 -14 -4 -60 -25
-102 -46 -75 -38 -78 -38 -78 -17 0 12 10 33 23 47 19 22 19 23 1 8 -25 -21
-34 -22 -34 -2 0 8 -4 15 -10 15 -5 0 -10 -7 -10 -15 0 -8 -4 -15 -9 -15 -5 0
-12 -10 -16 -22 -7 -21 -8 -20 -12 10 -3 20 -10 32 -19 32 -11 0 -12 -4 -4
-19 16 -30 12 -48 -11 -54 -20 -5 -21 -3 -16 30 6 34 6 35 -13 18 -11 -10 -22
-26 -26 -37 -4 -13 -11 -17 -22 -13 -34 14 -247 65 -257 61 -19 -7 60 -34 150
-51 86 -16 141 -34 105 -35 -29 0 -215 42 -225 51 -12 12 -45 11 -45 -1 0 -19
114 -50 243 -66 34 -4 55 -10 50 -15 -5 -5 -69 -1 -149 10 -76 10 -140 18
-141 17 0 -1 -3 -10 -5 -21 -3 -18 7 -20 152 -35 l155 -15 10 -30 c16 -48 24
-55 61 -55 32 0 36 4 54 45 l19 45 64 0 c84 0 148 31 159 78 l9 32 68 0 c67 0
69 1 74 27 10 51 -3 60 -55 38 -13 -5 -18 -2 -18 10 0 9 4 14 9 11 5 -3 48 15
97 41 49 25 103 49 120 53 28 7 33 4 49 -26 13 -24 32 -39 64 -51 l46 -18 1
-70 c1 -38 5 -114 9 -167 6 -74 5 -98 -4 -98 -14 0 -8 -26 15 -74 9 -18 12
-42 8 -62 -8 -42 7 -68 48 -84 18 -7 42 -21 53 -31 12 -10 37 -24 57 -31 26
-9 53 -35 94 -88 52 -66 59 -80 59 -120 0 -40 3 -45 24 -48 21 -3 23 -1 17 25
-3 15 -9 42 -12 60 l-6 31 41 -5 c25 -3 41 -2 41 5 0 5 -39 83 -86 173 -58
111 -98 174 -122 196 l-36 32 29 6 c89 18 164 40 195 55 19 10 50 24 68 31 28
10 31 14 18 21 -9 5 -16 18 -16 28 0 10 -4 21 -8 24 -5 3 -8 -5 -8 -17 1 -16
-10 -27 -38 -41 -32 -16 -204 -65 -228 -66 -19 0 -5 43 25 77 l32 38 -37 -27
-36 -28 -13 53 c-7 28 -12 89 -11 133 2 80 1 82 -24 88 -14 4 -29 4 -33 1 -5
-2 -10 40 -13 95 -3 86 -7 103 -25 121 l-21 22 59 39 c32 22 61 44 64 49 9 13
4 11 -29 -10z m-34 -358 c-3 -16 -7 -22 -10 -15 -4 13 4 42 11 42 2 0 2 -12
-1 -27z m-515 5 c0 -8 -14 -13 -34 -14 -37 -1 -45 12 -10 19 40 8 44 7 44 -5z
m450 -30 c-3 -8 -6 -5 -6 6 -1 11 2 17 5 13 3 -3 4 -12 1 -19z m-612 -38 c3
-5 1 -10 -4 -10 -6 0 -11 5 -11 10 0 6 2 10 4 10 3 0 8 -4 11 -10z m602 -47
c-3 -10 -5 -2 -5 17 0 19 2 27 5 18 2 -10 2 -26 0 -35z m-630 31 c-3 -3 -12
-4 -19 -1 -8 3 -5 6 6 6 11 1 17 -2 13 -5z m43 -32 c-19 -9 -36 -20 -38 -24
-2 -5 -27 -8 -55 -7 l-52 0 75 24 c89 27 119 30 70 7z m657 -14 c-3 -8 -6 -5
-6 6 -1 11 2 17 5 13 3 -3 4 -12 1 -19z m-10 -55 c-3 -10 -5 -4 -5 12 0 17 2
24 5 18 2 -7 2 -21 0 -30z m28 -23 c-9 -41 -17 -33 -9 9 4 17 9 30 11 27 3 -2
2 -19 -2 -36z m60 -100 c3 -5 1 -10 -4 -10 -6 0 -11 5 -11 10 0 6 2 10 4 10 3
0 8 -4 11 -10z m-74 -31 c-5 -13 -10 -19 -10 -12 -1 15 10 45 15 40 3 -2 0
-15 -5 -28z m49 27 c0 -2 -7 -6 -15 -10 -8 -3 -15 -1 -15 4 0 6 7 10 15 10 8
0 15 -2 15 -4z m-143 -38 c-3 -8 -6 -5 -6 6 -1 11 2 17 5 13 3 -3 4 -12 1 -19z
m73 8 c0 -3 -4 -8 -10 -11 -5 -3 -10 -1 -10 4 0 6 5 11 10 11 6 0 10 -2 10 -4z
m228 -201 c-3 -3 -9 2 -12 12 -6 14 -5 15 5 6 7 -7 10 -15 7 -18z m55 -98 c40
-73 35 -85 -6 -14 -22 37 -47 100 -35 87 3 -3 21 -36 41 -73z"/>
<path d="M6291 4228 c-44 -92 -48 -104 -34 -115 23 -18 32 -9 73 81 51 111 60
150 11 49 -22 -46 -45 -83 -50 -83 -6 0 -11 -5 -11 -11 0 -5 4 -7 10 -4 6 3 7
-1 4 -9 -3 -9 -10 -16 -14 -16 -12 0 -5 33 17 80 24 49 53 130 47 130 -2 0
-26 -46 -53 -102z"/>
<path d="M8328 4293 c7 -3 16 -2 19 1 4 3 -2 6 -13 5 -11 0 -14 -3 -6 -6z"/>
<path d="M4935 4230 l-240 -6 185 -2 c102 -1 262 -4 355 -6 110 -2 134 -1 70
3 -63 4 -89 8 -70 12 35 7 47 7 -300 -1z"/>
<path d="M7660 4213 c19 -15 57 -48 84 -73 28 -26 44 -36 38 -23 -7 11 -31 36
-54 55 -24 18 -51 41 -60 51 -10 9 -24 17 -30 17 -7 0 3 -12 22 -27z"/>
<path d="M4730 4189 c25 -4 83 -5 130 -2 94 6 104 -2 19 -15 -37 -6 10 -8 151
-7 113 1 150 0 83 -2 -68 -2 -123 -7 -123 -11 0 -4 28 -7 63 -5 34 1 129 5
211 9 167 7 180 22 21 26 l-100 2 120 6 c66 3 -46 5 -250 6 -203 0 -350 -3
-325 -7z"/>
<path d="M5632 4181 c-10 -6 -1 -12 30 -19 24 -7 48 -15 54 -19 39 -28 46
-118 12 -148 l-23 -19 25 -7 c14 -4 19 -7 12 -8 -29 -2 -22 -34 24 -98 70
-100 222 -320 267 -385 21 -32 43 -58 48 -58 19 0 8 33 -29 88 -21 31 -55 90
-75 129 -21 40 -70 117 -110 170 -91 124 -113 163 -95 174 7 5 23 7 35 4 12
-2 23 1 25 7 2 5 34 -27 71 -71 38 -45 72 -79 76 -77 4 3 21 -9 37 -27 l29
-32 -31 28 c-19 17 -33 24 -36 17 -2 -6 -34 25 -72 69 -71 85 -87 99 -60 54
l16 -28 -26 28 c-29 31 -35 24 -8 -9 30 -38 143 -133 155 -131 6 1 11 -3 12
-10 0 -14 25 -41 25 -28 0 5 11 -2 25 -15 14 -13 27 -21 30 -18 13 12 -44 88
-124 167 -47 46 -75 78 -61 71 19 -9 15 -2 -17 32 -24 24 -43 48 -43 53 0 6 6
3 13 -6 7 -8 20 -18 31 -22 11 -5 7 4 -14 25 -18 18 -46 53 -64 78 -31 44 -33
45 -91 48 -33 1 -66 -2 -73 -7z m236 -179 c6 -18 -15 -14 -22 4 -4 10 -1 14 6
12 6 -2 14 -10 16 -16z m-84 -124 l18 -33 -26 30 c-14 17 -31 39 -38 50 -10
19 -10 19 8 3 10 -9 27 -32 38 -50z m77 -110 c16 -29 2 -21 -22 15 -17 23 -18
28 -6 18 10 -8 23 -23 28 -33z"/>
<path d="M2500 4166 c0 -3 14 -12 30 -21 17 -9 30 -13 30 -11 0 3 -13 12 -30
21 -16 9 -30 13 -30 11z"/>
<path d="M5328 4123 c18 -2 45 -2 60 0 15 2 0 4 -33 4 -33 0 -45 -2 -27 -4z"/>
<path d="M5193 4113 c15 -2 39 -2 55 0 15 2 2 4 -28 4 -30 0 -43 -2 -27 -4z"/>
<path d="M6191 4109 c-28 -11 -24 -37 16 -98 30 -47 35 -49 63 -21 29 29 25
71 -8 103 -31 29 -35 30 -71 16z"/>
<path d="M2350 4107 c0 -3 12 -12 26 -22 15 -9 23 -12 20 -6 -7 11 -46 35 -46
28z"/>
<path d="M5078 4103 c12 -2 30 -2 40 0 9 3 -1 5 -23 4 -22 0 -30 -2 -17 -4z"/>
<path d="M4880 4090 c-24 -5 0 -8 79 -9 63 0 112 1 110 3 -9 9 -155 14 -189 6z"/>
<path d="M5318 4093 c7 -3 16 -2 19 1 4 3 -2 6 -13 5 -11 0 -14 -3 -6 -6z"/>
<path d="M7846 4077 c-21 -15 -18 -50 4 -54 22 -4 80 34 80 52 0 19 -59 21
-84 2z"/>
<path d="M5155 4070 l80 -5 -70 -7 c-38 -5 -113 -8 -165 -9 -52 -1 -106 -5
-120 -9 -14 -5 84 -7 233 -5 142 2 262 6 265 10 4 4 -33 5 -83 3 -115 -7 -66
8 65 19 85 8 76 9 -95 9 -110 0 -156 -3 -110 -6z"/>
<path d="M6340 4016 c0 -9 29 -19 90 -31 50 -10 89 -19 87 -22 -2 -2 -43 3
-91 10 -95 16 -116 8 -33 -12 177 -43 260 -60 268 -55 5 3 9 12 9 21 0 9 7 24
15 33 14 15 1 19 -153 43 -192 32 -192 32 -192 13z m287 -83 c-3 -10 -5 -4 -5
12 0 17 2 24 5 18 2 -7 2 -21 0 -30z"/>
<path d="M5118 4013 c6 -2 18 -2 25 0 6 3 1 5 -13 5 -14 0 -19 -2 -12 -5z"/>
<path d="M3568 4003 c7 -3 16 -2 19 1 4 3 -2 6 -13 5 -11 0 -14 -3 -6 -6z"/>
<path d="M3538 3983 c12 -2 30 -2 40 0 9 3 -1 5 -23 4 -22 0 -30 -2 -17 -4z"/>
<path d="M5021 3983 c-26 -10 -58 -56 -53 -75 2 -10 8 -18 12 -18 4 0 15 -18
26 -40 11 -23 26 -40 36 -40 9 0 20 -4 23 -10 9 -15 58 -12 81 5 26 20 39 19
41 -5 1 -11 -4 -20 -12 -20 -8 0 -17 -4 -20 -10 -4 -6 2 -7 17 -1 46 17 46
107 -1 176 -25 38 -30 40 -81 42 -30 1 -61 -1 -69 -4z m136 -78 c-2 -11 -31
-23 -64 -24 -26 -1 -22 25 5 32 29 7 61 3 59 -8z"/>
<path d="M5168 3983 c7 -3 16 -2 19 1 4 3 -2 6 -13 5 -11 0 -14 -3 -6 -6z"/>
<path d="M5781 3970 c-2 -50 223 -309 248 -285 2 3 -24 35 -59 70 -88 89 -70
82 26 -10 43 -41 80 -72 83 -69 3 3 -30 37 -73 77 -126 116 -191 180 -208 207
-12 17 -17 20 -17 10z"/>
<path d="M6790 3917 l0 -46 58 -11 c31 -7 85 -18 120 -25 55 -11 64 -11 69 2
3 8 2 18 -3 22 -11 10 -168 41 -206 41 -16 0 -28 5 -28 10 0 13 12 13 95 -4
195 -40 230 -26 48 19 -65 15 -126 30 -135 33 -15 4 -18 -3 -18 -41z"/>
<path d="M7685 3940 c-13 -5 -14 -9 -5 -9 8 0 24 4 35 9 13 5 14 9 5 9 -8 0
-24 -4 -35 -9z"/>
<path d="M5980 3895 c19 -14 36 -25 39 -25 10 1 -53 50 -63 50 -6 0 5 -11 24
-25z"/>
<path d="M6255 3790 c10 -11 20 -20 23 -20 3 0 -3 9 -13 20 -10 11 -20 20 -23
20 -3 0 3 -9 13 -20z"/>
<path d="M6229 3771 c19 -17 37 -28 40 -26 5 6 -23 30 -54 46 -11 5 -5 -4 14
-20z"/>
<path d="M6202 3718 c3 -29 10 -37 58 -60 38 -19 46 -26 25 -21 -16 3 -38 10
-47 14 -23 12 -38 11 -38 -2 0 -6 10 -13 22 -17 21 -5 21 -6 3 -12 -30 -10 58
-35 200 -55 66 -10 138 -22 160 -26 37 -8 36 -8 -10 -4 -163 17 -242 28 -302
45 -69 19 -90 20 -55 1 58 -31 395 -93 420 -77 4 2 8 26 7 53 l0 48 -110 37
c-112 38 -151 46 -140 28 10 -15 4 -13 -94 35 -50 25 -94 45 -97 45 -3 0 -4
-15 -2 -32z m151 -95 c-7 -2 -19 -2 -25 0 -7 3 -2 5 12 5 14 0 19 -2 13 -5z
m-58 -13 c13 -5 14 -9 5 -9 -8 0 -24 4 -35 9 -13 5 -14 9 -5 9 8 0 24 -4 35
-9z"/>
<path d="M6828 3653 c7 -3 16 -2 19 1 4 3 -2 6 -13 5 -11 0 -14 -3 -6 -6z"/>
<path d="M6765 3592 c6 -6 51 -14 100 -18 71 -5 88 -4 78 6 -6 7 -49 14 -100
17 -61 4 -85 2 -78 -5z"/>
<path d="M6014 3354 c-22 -33 -9 -78 25 -82 39 -6 81 17 81 44 0 58 -76 85
-106 38z"/>
<path d="M8027 3359 c-17 -10 -47 -59 -47 -79 0 -17 18 -11 25 9 3 10 14 29
25 41 11 13 20 27 20 32 0 10 -1 10 -23 -3z"/>
<path d="M6323 3323 c9 -2 23 -2 30 0 6 3 -1 5 -18 5 -16 0 -22 -2 -12 -5z"/>
<path d="M6405 3309 c22 -4 54 -8 70 -7 26 0 25 1 -10 9 -22 4 -53 8 -70 7
-26 0 -25 -1 10 -9z"/>
<path d="M6438 3253 c6 -2 18 -2 25 0 6 3 1 5 -13 5 -14 0 -19 -2 -12 -5z"/>
<path d="M6493 3243 c9 -2 25 -2 35 0 9 3 1 5 -18 5 -19 0 -27 -2 -17 -5z"/>
<path d="M5193 3105 c0 -27 2 -38 4 -22 2 15 2 37 0 50 -2 12 -4 0 -4 -28z"/>
<path d="M6268 3123 c6 -2 18 -2 25 0 6 3 1 5 -13 5 -14 0 -19 -2 -12 -5z"/>
<path d="M6228 3113 c7 -3 16 -2 19 1 4 3 -2 6 -13 5 -11 0 -14 -3 -6 -6z"/>
<path d="M6445 2572 c6 -6 30 -13 55 -16 30 -4 37 -3 20 3 -53 17 -85 22 -75
13z"/>
</g>
</svg>
